<?xml version="1.0" encoding="utf-8"?>
<!-- Generator: Adobe Illustrator 16.0.0, SVG Export Plug-In . SVG Version: 6.00 Build 0)  -->
<!DOCTYPE svg PUBLIC "-//W3C//DTD SVG 1.1//EN" "http://www.w3.org/Graphics/SVG/1.1/DTD/svg11.dtd">
<svg version="1.1" xmlns="http://www.w3.org/2000/svg" xmlns:xlink="http://www.w3.org/1999/xlink" x="0px" y="0px" width="204px"
	 height="204px" viewBox="0 0 204 204" enable-background="new 0 0 204 204" xml:space="preserve">
<g id="bg_1_" display="none">
	<rect id="bg" x="-1" y="1" display="inline" fill="#6DBEF2" width="800" height="600"/>
</g>
<g id="Layer_3" display="none">
	<circle display="inline" fill="#FFFFFF" cx="400" cy="300" r="102"/>
</g>
<g id="Layer_1" display="none">
</g>
<g id="_x34__x5F_dovoz_x5F_penez">
	<g id="bg_5_">
	</g>
	<g>
		<circle fill="#6DBEF2" cx="102" cy="102" r="102"/>
		<g>
			<polygon fill-rule="evenodd" clip-rule="evenodd" fill="#052145" points="66.765,126.063 51.837,117.508 51.837,121.71 
				66.765,130.267 			"/>
			<path fill-rule="evenodd" clip-rule="evenodd" fill="#F0C17D" d="M113.808,89.952c2.294,1.054,8.134,3.23,11.431,4.174
				l-0.729,2.807c-3.37-0.605-11.988-1.8-16.494-2.991c-1.4-0.37-3.15-2.728-1.931-4.031
				C107.92,87.948,109.891,88.15,113.808,89.952z"/>
			<path fill-rule="evenodd" clip-rule="evenodd" fill="#131314" d="M110.345,128.943l3.981,0.097
				c0.465,0.01,0.927,0.542,0.849,0.998c-1.866,10.765,3.944,8.776,6.292,9.093c2.085,0.032,2.73,1.583,2.863,2.309
				c0.489,2.655-3.618,2.665-5.608,2.595c-2.877-0.102-4.202-1.432-5.622-0.361c-0.383,0.288-3.206,0.313-3.813,0.169
				c-1.389-0.328-1.67-2.554-1.811-4.009c-0.196-2.061,0.643-3.022,1.626-5.183l0.462-4.729
				C109.608,129.458,109.88,128.916,110.345,128.943z"/>
			<g>
				<path fill-rule="evenodd" clip-rule="evenodd" fill="#121212" d="M149.627,168.176c-9.383,0-17.036-7.652-17.036-17.035
					s7.653-17.035,17.036-17.035c9.382,0,17.034,7.652,17.034,17.035S159.009,168.176,149.627,168.176z"/>
				<path fill-rule="evenodd" clip-rule="evenodd" fill="#E0E0E0" d="M149.627,161.691c-5.812,0-10.552-4.739-10.552-10.551
					s4.74-10.552,10.552-10.552c5.811,0,10.55,4.74,10.55,10.552S155.438,161.691,149.627,161.691z"/>
				<path fill-rule="evenodd" clip-rule="evenodd" fill="#777778" d="M149.627,159.823c-4.782,0-8.684-3.901-8.684-8.683
					s3.901-8.683,8.684-8.683c4.781,0,8.682,3.901,8.682,8.683S154.408,159.823,149.627,159.823z"/>
			</g>
			<path fill-rule="evenodd" clip-rule="evenodd" fill="#072C5E" d="M126.68,93.496c0.49,0.654,1.879,6.412,2.4,7.052
				c7.758,9.507,18.542,17.803,16.771,30.119c-9.249,3.316-11.322,6.504-15.38,14.46c-3.209,6.293-5.912,8.65-9.458,9.53
				l-30.351,0.11c-8.52-23.818-5.27-15.07-41.764-10.881c-2.53-12.514,18.377-18,20.403-24.009l33.189,0.049
				c0.232,1.675-4.579,3.949-7.705,7.355c-3.492,3.8,8.082,4.069,8.693,16.384l18.803-0.548c5.381-4.644,8.044-11.226,7.771-17.36
				c-0.342-7.745-5.99-15.933-7.037-22.928C121.834,94.93,123.068,94.105,126.68,93.496z"/>
			<path fill-rule="evenodd" clip-rule="evenodd" fill="#052145" d="M101.254,109.981H71.653c-1.892,0-3.44,1.547-3.44,3.439v5.105
				c0,1.893,1.548,3.44,3.44,3.44h29.602c1.891,0,3.44-1.548,3.44-3.44v-5.105C104.694,111.528,103.146,109.981,101.254,109.981z"/>
			<path fill-rule="evenodd" clip-rule="evenodd" fill="#FFB601" d="M149.627,129.819c-11.776,0-21.323,9.545-21.323,21.321
				c0,2.596,0.465,5.084,1.315,7.385c16.673-5.06,14.332-12.848,38.733-17.588C164.735,134.313,157.706,129.819,149.627,129.819z"/>
			<g>
				<path fill-rule="evenodd" clip-rule="evenodd" fill="#121212" d="M68.202,168.176c-9.383,0-17.035-7.652-17.035-17.035
					s7.652-17.035,17.035-17.035s17.035,7.652,17.035,17.035S77.585,168.176,68.202,168.176z"/>
				<path fill-rule="evenodd" clip-rule="evenodd" fill="#E0E0E0" d="M68.202,161.691c-5.812,0-10.551-4.739-10.551-10.551
					s4.739-10.552,10.551-10.552c5.811,0,10.55,4.74,10.55,10.552S74.013,161.691,68.202,161.691z"/>
				<path fill-rule="evenodd" clip-rule="evenodd" fill="#777778" d="M68.202,159.823c-4.782,0-8.682-3.901-8.682-8.683
					s3.9-8.683,8.682-8.683c4.782,0,8.683,3.901,8.683,8.683S72.984,159.823,68.202,159.823z"/>
			</g>
			<path fill-rule="evenodd" clip-rule="evenodd" fill="#1B5096" d="M96.305,150.116c1.147-0.856,1.384-2.482,0.527-3.631
				c-0.857-1.146-2.482-1.384-3.63-0.527l-6.386,4.774c-0.032,0.024-0.063,0.049-0.094,0.073l-0.35,0.258
				c-0.8,0.586-1.215,0.891-1.436,0.958c-0.333,0.101-1.059,0.099-2.563,0.09l-0.194-0.001l-18.656-0.092
				c-1.428-0.006-2.59,1.147-2.596,2.576c-0.006,1.428,1.148,2.59,2.576,2.596l18.655,0.092h0.195
				c2.026,0.012,3.005,0.018,4.084-0.312c1.095-0.332,1.744-0.811,2.997-1.73l0.35-0.257c0.046-0.029,0.091-0.06,0.134-0.092
				L96.305,150.116z"/>
			<path fill-rule="evenodd" clip-rule="evenodd" fill="#052145" d="M122.829,143.335h-20.547c-0.786,0-1.428,0.643-1.428,1.428l0,0
				c0,0.786,0.642,1.43,1.428,1.43h20.547c0.785,0,1.428-0.644,1.428-1.43l0,0C124.257,143.978,123.614,143.335,122.829,143.335z"/>
			<path fill-rule="evenodd" clip-rule="evenodd" fill="#072C5E" d="M135.568,89.646h-5.704c-2.78,0-5.055,2.275-5.055,5.056v2.693
				c0,2.78,2.274,5.054,5.055,5.054h5.704c2.781,0,2.979-2.274,2.979-5.054v-2.693C138.548,91.921,138.35,89.646,135.568,89.646z"/>
			<path fill-rule="evenodd" clip-rule="evenodd" fill="#E0E0E0" d="M135.568,89.646l-2.516,1.208l0.22,10.551l2.296,1.043
				c2.781,0,2.979-2.274,2.979-5.054v-2.693C138.548,91.921,138.35,89.646,135.568,89.646z"/>
			<path fill-rule="evenodd" clip-rule="evenodd" fill="#1B5096" d="M135.568,89.646h-3.065v12.803h3.065
				c0.158,0,0.311-0.007,0.451-0.021v-12.76C135.879,89.654,135.727,89.646,135.568,89.646z"/>
			<path fill-rule="evenodd" clip-rule="evenodd" fill="#052145" d="M124.792,94.506l-14.11,3.947
				c-1.001,0.279-1.822,1.371-1.822,2.443l0,0c0,1.075,0.824,1.744,1.822,1.463l14.11-3.947c0.997-0.28,1.82-1.369,1.82-2.443v0
				C126.612,94.895,125.79,94.228,124.792,94.506z"/>
			<path fill-rule="evenodd" clip-rule="evenodd" fill="#072C5E" d="M117.084,112.148l-1.024,24.731l-8.118-0.387l0.924-13.559
				l0.75-14.23C115.126,106.783,117.351,109.079,117.084,112.148z"/>
			<path fill-rule="evenodd" clip-rule="evenodd" fill="#072C5E" d="M99.116,115.633c-4.043,0.052-13.653-1.629-16.9-4.205
				l4.301-11.013l13.599,3.602l13.561,3.84c4.254,1.365,3.199,4.254,2.098,6.469l-2.267,2.598
				C107.726,116.065,103.907,115.573,99.116,115.633z"/>
			<path fill-rule="evenodd" clip-rule="evenodd" fill="#0F4283" d="M78.835,99.219l8.641-4.364l5.768,4.795l1.049,1.867
				l2.084,2.016l16.512,3.848c1.326,0.423,1.932,0.428,2.881,1.568c1.939,2.329,0.152,4.593-3.186,8.019
				c-4.784-0.038-14.592,0.044-18.683-0.457C83.683,115.261,75.084,111.993,78.835,99.219z"/>
			<path fill-rule="evenodd" clip-rule="evenodd" fill="#4C77B0" d="M114.283,56.633c-1.017,3.957-4.358,3.348-8.109,1.847
				l0.466-2.312l1.3-0.95l1.754-0.072L114.283,56.633z"/>
			<g>
				<path fill-rule="evenodd" clip-rule="evenodd" fill="#F0C17D" d="M96.292,60.99l-2.221,4.372l4.184,6.032l1.425-0.714
					c2.541-3.526,1.267-3.475,4.006-7.845l-4.91-5.026C97.603,60.497,97.371,59.155,96.292,60.99z"/>
				<path fill-rule="evenodd" clip-rule="evenodd" fill="#FFDBA7" d="M107.539,63.16c-0.188,0.333-0.217,0.551,0.021,0.908
					c-0.045,0.263-0.302,0.49-0.6,0.485c-1.087-0.482-0.924,0.39-0.84,0.429c0.784,0.371,0.576,0.632,0.344,0.842
					c-0.247-0.027-0.38,0.03-0.444,0.137c-0.199,0.329,0.204,1.256-0.515,1.695c-0.863,0.527-3.655-2.181-4.957-3.434
					c-1.079-1.038-0.375-1.783,0.209-3.117c-0.76-0.139-1.253-0.538-0.919-1.687c-0.52-1.649-0.492-2.842-0.606-4.561
					c0,0,4.334-5.301,4.494-5.29c0.162,0.011,4.688,2.146,4.688,2.146c0.279,1.093,0.936,2.233,1.188,3.485
					c0.352,1.734,0.089,2.629,0.056,3.394c-0.028,0.649-0.207,0.905-0.434,1.16c-0.104,0.117-0.263,0.25-0.31,0.396
					c-0.379,1.159,0.419,2.538,0.254,2.839C109.034,63.236,108.347,63.521,107.539,63.16z"/>
				<path fill-rule="evenodd" clip-rule="evenodd" fill="#632404" d="M104.04,58.091c-0.152,0.437-0.806,1.127-1.066,2.017
					c-0.383-0.748-0.385-1.229-0.701-1.845c-0.464-0.802-1.11-1.64-1.802-1.582c-0.793,0.066-0.829,1.484-0.531,2.561
					c0.159,0.576,0.032,1.104-0.187,1.405c-0.483,0.668-1.138,0.093-2.042,0.625c-0.738,0.434-1.794,0.934-2.174,1.27
					c0.227-1.218,0.604-2.318,0.201-3.671c-0.209-0.705-0.276-1.626-0.2-2.583c0.313-3.892,3.311-6.292,6.36-6.572
					c3.921-0.361,7.496,2.4,7.686,5.367c-0.574-0.205-1.773-0.237-3.023-0.083c-1.43,0.819-2.174,2.281-2.282,3.646L104.04,58.091z"
					/>
			</g>
			<path fill-rule="evenodd" clip-rule="evenodd" fill="#6492D0" d="M95.438,56.713c-0.009-0.589,0.039-1.217,0.146-1.836
				c0.61-3.542,4.049-6.07,7.102-5.901c4.084,0.227,6.055,2.243,6.863,4.704c0.204,0.619,0.331,1.188,0.4,1.806
				c-2.637,0.189-5.125,0.408-7.792,0.56C99.817,56.178,97.549,55.892,95.438,56.713z"/>
			<g>
				<path fill-rule="evenodd" clip-rule="evenodd" fill="#F0C17D" d="M100.339,84.003c1.633,3.153,4.646,8.795,7.798,9.824
					c1.019,0.195,3.541-1.853,2.038-5.163c-0.393-1.153-1.224-1.49-3.341-9.27c-1.918-7.042-3.546-10.503-8.217-8.218
					C93.022,74.042,98.757,81.485,100.339,84.003z"/>
				<path fill-rule="evenodd" clip-rule="evenodd" fill="#4C77B0" d="M100.178,84.145c1.831-2.176,5.03-2.413,7.43-1.959
					c-0.226-0.791-0.48-1.713-0.774-2.791c-1.918-7.041-3.546-10.503-8.217-8.218C93.022,74.042,98.416,81.643,100.178,84.145z"/>
			</g>
			<path fill-rule="evenodd" clip-rule="evenodd" fill="#6492D0" d="M93.969,64.529c-0.59,0.241-1.253,0.231-2.604,0.407
				c-3.934,0.511-5.14,1.361-6.63,2.768c-2.597,2.456-3.161,12.123-4.126,21.766c-0.267,2.678-1.641,7.433-2.023,9.953
				c1.481,2.434,14.109,2.374,15.503,1.036c3.225-5.843,5.775-9.065,7.841-14.705c1.215-3.315,2.093-6.472,2.408-8.955
				c0.365-2.881,0.748-4.147-1.002-6.298c-0.885-1.087-1.357-2.084-1.765-3.241C99.584,73.876,94.897,64.15,93.969,64.529z"/>
			<path fill-rule="evenodd" clip-rule="evenodd" fill="#4C77B0" d="M94.09,100.457c3.225-5.842,5.775-9.065,7.841-14.704
				c1.215-3.315,2.093-6.472,2.408-8.955c0.365-2.881,0.748-4.147-1.002-6.298c-0.885-1.087-1.357-2.084-1.765-3.241
				c-0.104,0.346-0.217,0.646-0.334,0.907c0.005,6.084-0.232,11.513-2.29,16.276c-4.6,10.654-7.235,13.431-8.833,16.854
				C91.45,101.215,93.296,101.138,94.09,100.457z"/>
			<g>
				<path fill-rule="evenodd" clip-rule="evenodd" fill="#FFDBA7" d="M87.011,80.128c0.707,2.095,2.169,7.538,3.402,9.824
					c0.076,0.14,6.061,4.434,6.129-2.223c0.275-0.627-1.238-3.946-2.242-12.176c-0.83-6.794-4.963-8.414-7.135-6.899
					C85.156,70.054,84.975,74.097,87.011,80.128z"/>
				<path fill-rule="evenodd" clip-rule="evenodd" fill="#76A5E3" d="M86.592,80.228c2.034-2.106,6.201-2.473,8.435-1.81
					c-0.112-0.837-0.236-1.814-0.375-2.954c-0.911-7.449-2.365-11.077-7.124-9.086C81.808,68.896,85.656,77.453,86.592,80.228z"/>
			</g>
			<g>
				<path fill-rule="evenodd" clip-rule="evenodd" fill="#FFDBA7" d="M91.332,90.839c5.458,3.709,11.604,4.732,17.625,7.779
					c1.001-1.863,1.079-2.255,1.858-3.018c0,0-10.86-6.996-15.277-10.493C92.282,82.531,87.662,88.248,91.332,90.839z"/>
				<path fill-rule="evenodd" clip-rule="evenodd" fill="#FFDBA7" d="M116.376,96.462c0.884,0.305,0.876,0.383,1.511,0.998
					c0.506,0.49,1.324,1.117,1.404,1.201c0.116,0.123,0.701,1.693,0.701,1.693c-0.086,1.215,0.069,1.845-0.54,1.895
					c-0.372,0.03-0.549-0.527-0.798-1.714l-0.307-0.557c0.16,0.569,0.307,1.004,0.165,1.51c-0.125,0.445-0.47,0.99-1.305,0.727
					c-0.199-0.062-0.109-0.219-0.089-0.444l0.051-0.593c-0.496-0.463-0.921-0.894-1.388-1.385c0.594,0.719,0.932,1.185,1.023,1.535
					c0.13,0.495-0.282,0.677-0.694,0.854c-0.575,0.248-0.742-0.742-1.77-1.675c0.306,0.374,0.794,0.869,0.85,1.37
					c0.053,0.478-0.521,0.466-0.878,0.32c-1.316-0.538-3.276-1.574-4.472-2.453c-0.521-0.384-0.831-0.813-1.195-1.022
					c-0.917-0.458-2.255-1.295-3.202-1.688l1.936-3.682l3.72,1.869C111.653,95.188,115.865,96.286,116.376,96.462z"/>
			</g>
			<path fill-rule="evenodd" clip-rule="evenodd" fill="#76A5E3" d="M109.909,55.222c1.987,0.534,2.622,0.802,4.383,1.387
				c-2.85,1.824-6.787,0.162-9.822-0.76C105.605,55.385,108.481,54.824,109.909,55.222z"/>
			<g>
				<path fill-rule="evenodd" clip-rule="evenodd" fill="#5782BC" d="M99.703,69.703c-0.083,2.11-0.367,4.521-0.709,6.585
					c-0.143,0.806-0.168,0.891-1.032,0.736c-0.137-0.024-0.292-0.052-0.459-0.08l-0.024,0.357c0.171,0.029,0.321,0.055,0.452,0.079
					c1.242,0.223,1.284,0.23,1.441-1.01c0.386-2.331,0.549-4.22,0.643-6.607L99.703,69.703z"/>
				<g>
					<path fill-rule="evenodd" clip-rule="evenodd" fill="#8BB7F0" d="M98.318,75.943c-0.179-0.033-0.329,0.09-0.335,0.274
						c-0.005,0.185,0.136,0.362,0.316,0.396c0.18,0.033,0.331-0.09,0.335-0.274C98.64,76.155,98.498,75.977,98.318,75.943z"/>
					<path fill-rule="evenodd" clip-rule="evenodd" fill="#8BB7F0" d="M98.612,73.781c-0.18-0.034-0.33,0.089-0.334,0.274
						c-0.006,0.186,0.135,0.363,0.316,0.396c0.179,0.033,0.329-0.09,0.334-0.274C98.934,73.992,98.792,73.814,98.612,73.781z"/>
					<path fill-rule="evenodd" clip-rule="evenodd" fill="#8BB7F0" d="M98.874,71.672c-0.179-0.034-0.33,0.089-0.334,0.274
						c-0.004,0.186,0.137,0.363,0.316,0.396c0.181,0.033,0.33-0.089,0.335-0.274C99.196,71.884,99.054,71.706,98.874,71.672z"/>
				</g>
			</g>
			<path fill-rule="evenodd" clip-rule="evenodd" fill="#76A5E3" d="M94.659,63.729c0.772,2.198,2.832,4.671,4.841,5.842
				c-0.002,0.036-0.041,0.1-0.07,0.118c-0.855,0.528-1.85,1.242-2.791,2.634c-1.155-2.243-3.11-5.021-2.819-7.74L94.659,63.729z"/>
			<path fill-rule="evenodd" clip-rule="evenodd" fill="#76A5E3" d="M101.564,67.193c-0.366,1.159-0.784,1.799-2.07,2.385
				c-0.017,0.008-0.084,0.039-0.02,0.086c0.632,0.619,1.18,1.156,1.479,2.927c0.846-1.645,1.242-3.213,1.247-4.052L101.564,67.193z"
				/>
			<path fill-rule="evenodd" clip-rule="evenodd" fill="#2B2C2E" d="M107.156,128.798l3.982,0.097
				c0.464,0.01,0.927,0.542,0.849,0.998c-1.866,10.765,3.944,8.776,6.29,9.093c2.085,0.032,2.731,1.583,2.865,2.309
				c0.488,2.655-3.618,2.665-5.609,2.596c-2.877-0.101-4.202-1.432-5.621-0.362c-0.384,0.289-3.207,0.313-3.813,0.169
				c-1.388-0.328-1.671-2.553-1.81-4.009c-0.197-2.061,0.643-3.022,1.623-5.182l0.463-4.729
				C106.421,129.313,106.691,128.771,107.156,128.798z"/>
			<path fill-rule="evenodd" clip-rule="evenodd" fill="#0F4283" d="M116.577,112.655l-3.924,24.515l-8.117-0.388l0.996-17.181
				l3.575-10.39C114.619,107.29,116.845,109.587,116.577,112.655z"/>
			<path fill-rule="evenodd" clip-rule="evenodd" fill="#FFB601" d="M62.058,130.177c11.254-3.465,23.187,2.85,26.652,14.103
				c0.763,2.482,1.052,4.996,0.917,7.444c-17.425,0.071-17.479-8.06-42.195-5.409C48.94,138.917,54.336,132.554,62.058,130.177z"/>
			<rect x="36.766" y="117.508" fill-rule="evenodd" clip-rule="evenodd" fill="#052145" width="35.07" height="4.202"/>
			<g>
				<g opacity="0.3">
					<path d="M46.302,99.49l-3.688-4.74c0,0,0.084-0.86,2.466-0.777c2.38,0.083,5.829-0.561,8.057-0.611
						c2.578-0.058,5.135,0.425,5.135,0.425l-3.854,5.703H46.302z"/>
					<path d="M46.302,99.49l-3.688-4.74c0,0,0.084-1.467,2.466-1.384c2.38,0.083,4.919,1.107,7.146,1.211
						c3.191,0.149,6.046-0.79,6.046-0.79l-3.854,5.703H46.302z"/>
					<path d="M59.104,108.205c-1.185-2.912-3.007-5.958-4.687-8.715h-8.115c-1.662,2.758-3.338,5.841-4.65,8.715
						c-2.799,6.135-1.204,8.156,2.082,9.604c2.437,1.075,10.852,1.075,13.289,0C60.309,116.361,61.138,113.204,59.104,108.205z"/>
					<path d="M51.842,107.555c-0.049-0.583-0.587-0.877-1.618-0.879c-1.034-0.004-1.553,0.271-1.554,0.82
						c-0.001,0.338,0.164,0.584,0.497,0.735c0.333,0.153,1.002,0.33,2.008,0.524c1.006,0.197,1.744,0.521,2.213,0.976
						c0.47,0.454,0.706,1.044,0.703,1.769c-0.002,0.845-0.383,1.496-1.141,1.955c-0.756,0.457-1.624,0.685-2.599,0.682
						c-2.356-0.009-3.697-0.916-4.021-2.723l1.953-0.151c0.14,0.948,0.836,1.424,2.086,1.428c1.171,0.005,1.758-0.39,1.76-1.184
						c0.001-0.353-0.139-0.614-0.424-0.787c-0.283-0.174-0.95-0.364-1.999-0.572c-1.047-0.21-1.805-0.523-2.27-0.946
						c-0.463-0.424-0.694-0.949-0.693-1.575c0.002-0.673,0.305-1.242,0.904-1.706c0.601-0.464,1.473-0.694,2.616-0.69
						c2.265,0.008,3.45,0.763,3.553,2.263L51.842,107.555z"/>
					<rect x="49.419" y="103.724" transform="matrix(1 0.0032 -0.0032 1 0.33 -0.1583)" width="1.858" height="1.689"/>
					<rect x="49.384" y="113.813" transform="matrix(1 0.0042 -0.0042 1 0.4823 -0.2104)" width="1.859" height="1.69"/>
					<path d="M55.169,99.666c0,0.162-0.162,0.293-0.363,0.293h-9.009c-0.2,0-0.363-0.131-0.363-0.293v-0.242
						c0-0.161,0.163-0.293,0.363-0.293h9.009c0.201,0,0.363,0.132,0.363,0.293V99.666z"/>
					<path d="M52.667,117.317c1.499,1.079,4.176,0.161,5.167-0.541c1.378-0.977,2.01-2.925,1.851-4.319
						c-0.159-1.395-0.377-2.338-0.939-3.635c-0.2-0.462,0.684,1.405-0.39,3.924c-0.801,1.878-3.119,2.357-4.655,2.531
						C52.625,115.397,51.175,116.242,52.667,117.317z"/>
					<path d="M51.755,98.881c0,0,2.838-1.031,4.24-2.473c1.583-1.628-1.557,2.473-1.557,2.473H51.755z"/>
					<path d="M43.702,95.095c0,0,0.054,0.042,0.141,0.119c0.088,0.077,0.208,0.19,0.348,0.331c0.279,0.281,0.622,0.677,0.938,1.093
						c0.317,0.417,0.607,0.854,0.803,1.197c0.098,0.171,0.175,0.318,0.226,0.424c0.051,0.105,0.076,0.167,0.076,0.167
						s-0.054-0.041-0.141-0.118c-0.088-0.078-0.209-0.19-0.349-0.331c-0.3-0.304-0.609-0.66-0.938-1.094
						c-0.316-0.417-0.605-0.854-0.802-1.197c-0.099-0.172-0.175-0.318-0.226-0.424C43.728,95.157,43.702,95.095,43.702,95.095z"/>
					<path d="M46.538,100.552c0,0-0.045,0.138-0.134,0.375c-0.088,0.237-0.217,0.574-0.386,0.971
						c-0.329,0.799-0.812,1.843-1.33,2.868c-0.52,1.023-1.074,2.031-1.523,2.77c-0.221,0.371-0.417,0.674-0.556,0.886
						c-0.139,0.212-0.223,0.329-0.223,0.329s0.045-0.139,0.134-0.375c0.088-0.236,0.217-0.574,0.385-0.972
						c0.329-0.799,0.813-1.841,1.331-2.867c0.52-1.024,1.075-2.031,1.524-2.769c0.221-0.371,0.416-0.675,0.555-0.886
						S46.538,100.552,46.538,100.552z"/>
				</g>
				<g>
					<g>
						<g>
							<path fill="#BBBDBF" d="M45.302,98.49l-3.688-4.74c0,0,0.084-0.86,2.466-0.777c2.38,0.083,5.829-0.561,8.057-0.611
								c2.578-0.058,5.135,0.425,5.135,0.425l-3.854,5.703H45.302z"/>
						</g>
						<g>
							<path fill="#E6E6E7" d="M45.302,98.49l-3.688-4.74c0,0,0.084-1.467,2.466-1.384c2.38,0.083,4.919,1.107,7.146,1.211
								c3.191,0.149,6.046-0.79,6.046-0.79l-3.854,5.703H45.302z"/>
							<path fill="#E6E6E7" d="M58.104,107.205c-1.185-2.912-3.007-5.958-4.687-8.715h-8.115c-1.662,2.758-3.338,5.841-4.65,8.715
								c-2.799,6.135-1.204,8.156,2.082,9.604c2.437,1.075,10.852,1.075,13.289,0C59.309,115.361,60.138,112.204,58.104,107.205z"/>
							<g>
								<g>
									<path fill="#E2A540" d="M50.842,106.555c-0.049-0.583-0.587-0.877-1.618-0.879c-1.034-0.004-1.553,0.271-1.554,0.82
										c-0.001,0.338,0.164,0.584,0.497,0.735c0.333,0.153,1.002,0.33,2.008,0.524c1.006,0.197,1.744,0.521,2.213,0.976
										c0.47,0.454,0.706,1.044,0.703,1.769c-0.002,0.845-0.383,1.496-1.141,1.955c-0.756,0.457-1.624,0.685-2.599,0.682
										c-2.356-0.009-3.697-0.916-4.021-2.723l1.953-0.151c0.14,0.948,0.836,1.424,2.086,1.428c1.171,0.005,1.758-0.39,1.76-1.184
										c0.001-0.353-0.139-0.614-0.424-0.787c-0.283-0.174-0.95-0.364-1.999-0.572c-1.047-0.21-1.805-0.523-2.27-0.946
										c-0.463-0.424-0.694-0.949-0.693-1.575c0.002-0.673,0.305-1.242,0.904-1.706c0.601-0.464,1.473-0.694,2.616-0.69
										c2.265,0.008,3.45,0.763,3.553,2.263L50.842,106.555z"/>
								</g>
								
									<rect x="48.419" y="102.724" transform="matrix(1 0.0032 -0.0032 1 0.3269 -0.1551)" fill="#E2A540" width="1.858" height="1.689"/>
								
									<rect x="48.384" y="112.813" transform="matrix(1 0.0042 -0.0042 1 0.4781 -0.2063)" fill="#E2A540" width="1.859" height="1.69"/>
							</g>
							<path fill="#744C29" d="M54.169,98.666c0,0.162-0.162,0.293-0.363,0.293h-9.009c-0.2,0-0.363-0.131-0.363-0.293v-0.242
								c0-0.161,0.163-0.293,0.363-0.293h9.009c0.201,0,0.363,0.132,0.363,0.293V98.666z"/>
							<path fill="#D0D2D3" d="M51.667,116.317c1.499,1.079,4.176,0.161,5.167-0.541c1.378-0.977,2.01-2.925,1.851-4.319
								c-0.159-1.395-0.377-2.338-0.939-3.635c-0.2-0.462,0.684,1.405-0.39,3.924c-0.801,1.878-3.119,2.357-4.655,2.531
								C51.625,114.397,50.175,115.242,51.667,116.317z"/>
							<path fill="#D0D2D3" d="M50.755,97.881c0,0,2.838-1.031,4.24-2.473c1.583-1.628-1.557,2.473-1.557,2.473H50.755z"/>
							<path fill="#F7F7F7" d="M42.702,94.095c0,0,0.054,0.042,0.141,0.119c0.088,0.077,0.208,0.19,0.348,0.331
								c0.279,0.281,0.622,0.677,0.938,1.093c0.317,0.417,0.607,0.854,0.803,1.197c0.098,0.171,0.175,0.318,0.226,0.424
								c0.051,0.105,0.076,0.167,0.076,0.167s-0.054-0.041-0.141-0.118c-0.088-0.078-0.209-0.19-0.349-0.331
								c-0.3-0.304-0.609-0.66-0.938-1.094c-0.316-0.417-0.605-0.854-0.802-1.197c-0.099-0.172-0.175-0.318-0.226-0.424
								C42.728,94.157,42.702,94.095,42.702,94.095z"/>
							<path fill="#F7F7F7" d="M45.538,99.552c0,0-0.045,0.138-0.134,0.375c-0.088,0.237-0.217,0.574-0.386,0.971
								c-0.329,0.799-0.812,1.843-1.33,2.868c-0.52,1.023-1.074,2.031-1.523,2.77c-0.221,0.371-0.417,0.674-0.556,0.886
								c-0.139,0.212-0.223,0.329-0.223,0.329s0.045-0.139,0.134-0.375c0.088-0.236,0.217-0.574,0.385-0.972
								c0.329-0.799,0.813-1.841,1.331-2.867c0.52-1.024,1.075-2.031,1.524-2.769c0.221-0.371,0.416-0.675,0.555-0.886
								S45.538,99.552,45.538,99.552z"/>
						</g>
					</g>
				</g>
			</g>
		</g>
	</g>
</g>
<g id="_x33__x5F_smlouva_x5F_s_x5F_kuryrem" display="none">
	<g id="bg_2_" display="inline">
	</g>
	<g display="inline">
		<circle fill="#6DBEF2" cx="103" cy="102" r="102"/>
		<g>
			<defs>
				<circle id="SVGID_1_" cx="102.5" cy="102.5" r="102.5"/>
			</defs>
			<clipPath id="SVGID_2_">
				<use xlink:href="#SVGID_1_"  overflow="visible"/>
			</clipPath>
			<g clip-path="url(#SVGID_2_)">
				<g>
					<g>
						<path fill="#F2AB88" d="M107.629,176.569c0,0-1.282,4.187-2.682,6.793c-0.723,1.349-1.009,1.96-0.447,8.461
							c0.021,0.255,0.215,0.463,0.469,0.499c0.472,0.068,1.221,0.099,1.672-0.281c0,0,0.471,2.582,1.596,2.012
							c0.521-0.265,1.135-0.654,1.135-0.654s0.27,1.225,1.074,1.401c0.537,0.117,1.421-0.567,1.93-1.239
							c0,0,0.661,1.115,1.314,1.144c0.348,0.014,0.879-0.223,1.968-1.028l-0.526-0.897c0,0-1.202-0.642-2.186-3.128
							c-0.44-1.121,0.086-1.893,0.874-1.362c1.025,0.689,0.456,1.28,1.66,3.137c1.064,1.64,3.091,2.53,3.825,1.669
							c1.2-1.415-1.206-3.317-1.727-4.263c-1.119-2.025-2.24-5.479-2.633-5.989c-0.647-0.847-3.44-3.09-2.832-4.872L107.629,176.569
							z"/>
						<path opacity="0.55" fill="#DCB890" d="M104.768,183.705c2.95-2.784,5.858-2.985,9.896-1.188
							c-0.932-1.004-3.091-2.958-2.551-4.548l-4.484-1.4c0,0-1.282,4.187-2.682,6.793
							C104.884,183.48,104.824,183.594,104.768,183.705z"/>
						<path opacity="0.65" fill="#D69C7C" d="M112.087,193.893c0.1-0.104,0.191-0.208,0.274-0.315
							c-0.014-0.415-0.957-3.612-1.241-4.61C110.994,189.088,111.615,192.591,112.087,193.893z"/>
						<path opacity="0.65" fill="#D69C7C" d="M109,193.628c0.099-0.104,0.289-0.124,0.371-0.229
							c-0.014-0.414-1.056-3.697-1.337-4.695C107.906,188.824,108.528,192.325,109,193.628z"/>
						<path opacity="0.65" fill="#D69C7C" d="M106.309,192.233c0,0,0.24-0.071,0.317-0.174c-0.011-0.394-0.783-2.573-1.053-3.528
							C105.451,188.646,105.857,190.992,106.309,192.233z"/>
						<path fill="#FFD7C0" d="M117.513,190.377c0.966-0.573,1.961,1.236,1.947,1.327c0,0-0.251,0.907-1.456,0.729
							c-0.425-0.316-0.558-0.614-0.693-0.927C117.068,190.953,117.233,190.544,117.513,190.377z"/>
					</g>
					<path fill="#F2AB88" d="M147.071,261.146l6.737,0.584c0,0,4.661,6.042,5.826,6.916c1.163,0.875,8.664,2.622,8.373,4.005
						s-2.111,2.985-4.952,2.694c-2.841-0.293-5.243-0.509-6.333-0.874c-1.019-0.339-5.517-1.628-10.762-2.35
						c-0.596-0.085-1.072-0.518-1.219-1.081C145.798,268.185,146.087,265.217,147.071,261.146z"/>
					<path fill="#5C3F31" d="M145.98,264.48c2.435,0.95,4.076,1.648,6.102,1.536c0.101-0.005,0.223-0.023,0.357-0.048
						c1.848,1.714,3.571,2.873,2.997,1.804c-0.236-0.438-0.913-1.445-1.301-2.273c0.601-0.255,1.696-0.794,2.056-1.071
						c1.468,1.817,3.995,3.743,4.647,4.232c1.313,0.982,9.76,2.951,9.431,4.509c-0.328,1.559-2.379,3.364-5.575,3.033
						c-3.2-0.327-9.027-1.434-10.821-1.91c-0.79-0.684-1.772-1.266-3.142-1.266c-0.407,0-0.79,0.039-1.149,0.11
						c-1.066-0.204-2.205-0.398-3.415-0.566c-0.779-0.107-1.374-0.744-1.425-1.529C144.64,269.489,145.457,266.854,145.98,264.48z"
						/>
					<path fill="#371909" d="M144.793,269.883c0.824,0.221,1.838,0.323,3.546,0.712c4.769,1.083,4.925,2.45,6.704,2.997
						c4.896,1.507,8.933,1.674,10.104,1.564c1.763,0.021,3.806-0.427,5.126-2.102c0.003,0.038,0.005,0.077-0.004,0.114
						c-0.328,1.559-2.379,3.364-5.575,3.033c-3.2-0.327-9.027-1.434-10.821-1.91c-0.79-0.684-1.772-1.266-3.142-1.266
						c-0.407,0-0.79,0.039-1.149,0.11c-1.066-0.204-2.205-0.398-3.415-0.566c-0.779-0.107-1.374-0.744-1.425-1.529
						C144.738,270.986,144.793,269.883,144.793,269.883z"/>
					<path fill="#F2AB88" d="M133.691,261.146l-6.737,0.584c0,0-4.661,6.042-5.825,6.916c-1.165,0.875-8.665,2.622-8.374,4.005
						s2.111,2.985,4.95,2.694c2.843-0.293,5.244-0.509,6.336-0.874c1.018-0.339,5.516-1.628,10.761-2.35
						c0.598-0.085,1.073-0.518,1.22-1.081C134.965,268.185,134.676,265.217,133.691,261.146z"/>
					<path fill="#5C3F31" d="M134.781,264.48c-2.434,0.95-4.077,1.648-6.1,1.536c-0.101-0.005-0.224-0.023-0.359-0.048
						c-1.847,1.714-3.571,2.873-2.996,1.804c0.235-0.438,0.913-1.445,1.301-2.273c-0.601-0.255-1.695-0.794-2.057-1.071
						c-1.468,1.817-3.993,3.743-4.646,4.232c-1.313,0.982-9.76,2.951-9.432,4.509c0.329,1.559,2.378,3.364,5.576,3.033
						c3.198-0.327,9.027-1.434,10.82-1.91c0.79-0.684,1.772-1.266,3.141-1.266c0.406,0,0.79,0.039,1.151,0.11
						c1.065-0.204,2.205-0.398,3.416-0.566c0.778-0.107,1.372-0.744,1.424-1.529C136.123,269.489,135.308,266.854,134.781,264.48z"
						/>
					<path fill="#371909" d="M135.969,269.883c-0.823,0.221-1.836,0.323-3.546,0.712c-4.767,1.083-4.925,2.45-6.705,2.997
						c-4.895,1.507-8.931,1.674-10.102,1.564c-1.765,0.021-3.807-0.427-5.126-2.102c-0.004,0.038-0.006,0.077,0.003,0.114
						c0.329,1.559,2.378,3.364,5.576,3.033c3.198-0.327,9.027-1.434,10.82-1.91c0.79-0.684,1.772-1.266,3.141-1.266
						c0.406,0,0.79,0.039,1.151,0.11c1.065-0.204,2.205-0.398,3.416-0.566c0.778-0.107,1.372-0.744,1.424-1.529
						C136.024,270.986,135.969,269.883,135.969,269.883z"/>
					<path fill="#28567A" d="M156.938,212.77c3.116-36.091-0.509-51.94-0.509-51.94l-17.894-11.28l-18.3,11.28
						c0,0-1.41,16.396,1.706,52.487c0,0,1.22,35.74,1.252,50.521c0,0,8.256,2.209,12.827-0.197c0,0-0.397-39.019-0.519-45.289
						c-0.095-5.005,1.044-27.66,2.095-38.189c0.087-0.888,1.382-0.888,1.47,0c1.05,10.529,3.766,33.185,3.669,38.189
						c-0.121,6.271,2.474,45.289,2.474,45.289c4.571,2.406,12.603,0.197,12.603,0.197
						C157.845,249.057,156.938,212.77,156.938,212.77z"/>
					<path opacity="0.35" fill="#28567A" d="M120.051,181.404c2.82,0.259,9.734,0.609,13.344-0.632
						c2.454-0.841,5.12-2.953,7.843-1.163c4.746,3.113,11.195,2.144,16.912,1.067c-0.291-13.591-1.72-19.848-1.72-19.848
						l-17.894-11.28l-18.3,11.28C120.236,160.829,119.673,167.414,120.051,181.404z"/>
					<path fill="#F2AB88" d="M130.393,109.748c1.025,0.514,2.061,1.011,3.122,1.451c0.014,0.005,0.021,0.008,0.037,0.012
						c1.277,0.425,2.566,0.821,3.872,1.139c2.433-0.504,4.851-1.035,7.326-1.397c0.011-0.005,0.02-0.011,0.027-0.017
						c0.858-0.508,1.722-1.02,2.545-1.582c0.088-0.08,0.168-0.157,0.236-0.229c1.209-1.277,2.255-2.686,3.432-3.985
						c1.146-1.265,2.396-2.451,3.501-3.75c0.026-0.049,0.052-0.097,0.08-0.152c0.066-0.128,0.128-0.255,0.196-0.384
						c-2.388-0.183-4.622-0.435-6.129-1.048c-4.638-1.89-4.638-10.992-4.638-10.992h-10.305c0,0,0,9.103-4.637,10.992
						c-1.568,0.639-3.921,0.885-6.415,1.07c1.141,1.712,2.196,3.482,3.344,5.337c0.273,0.439,0.813,1.115,1.135,1.521
						c0.129,0.114,0.257,0.227,0.39,0.333c0.055,0.041,0.101,0.078,0.146,0.115c0.123,0.077,0.242,0.162,0.368,0.238
						C128.802,108.882,129.584,109.342,130.393,109.748z"/>
					<path fill="#394962" d="M149.187,104.723c-0.719-0.668-1.543-1.617-2.53-1.911c-0.545-0.163-1.104-0.313-1.667-0.456
						c-2.058,0.451-3.956,0.66-5.685,0.677c-2.056-0.021-4.34-0.301-6.858-0.95c-0.58,0.519-1.147,1.059-1.745,1.553
						c-0.756,0.625-1.889,1.364-2.672,2.193c3.757,10.283,11.885,28.906,12.167,29.893l9.321-30.705
						C149.406,104.919,149.294,104.822,149.187,104.723z"/>
					<polygon fill="#BCADB4" points="150.608,102.202 146.307,99.468 138.96,103.09 131.45,99.468 127.146,102.202 135.001,112.35 
						138.879,106.545 142.756,112.35 					"/>
					<path fill="#17899C" d="M159.071,142.138c1.764-16.937,7.97-36.039,7.096-37.864c-1.568-3.278-10.479-2.819-15.733-4.031
						c-1.058,0.549-2.071,1.012-3.045,1.403l0,0l-7.662,25.239c-0.257-0.896-9.547-22.102-10.044-25.707l0,0
						c-0.634-0.281-1.279-0.589-1.945-0.935c-5.255,1.212-14.95,0.235-16.521,3.512c-0.933,1.952,5.845,19.653,7.635,37.651
						c1.518,15.258-1.937,34.643-2.253,36.218c0,0,8.858,2.098,15.396-0.7c2.815-1.206,4.638-4.899,6.884-18.721
						c0,0,1.607,16.796,6.938,18.982c4.501,1.847,15.398,0.438,15.398,0.438C160.873,175.928,157.353,158.664,159.071,142.138z"/>
					<path opacity="0.65" fill="#1D5069" d="M139.727,131.596c0,0-0.325,20.793-0.875,26.785
						C138.852,158.381,138.501,137.881,139.727,131.596z"/>
					<path opacity="0.35" fill="#17909C" d="M151.4,108.732l2.938-0.689c-0.02-0.666-0.032-5.838-0.061-7.242
						c-1.52-0.113-3.296-0.257-4.6-0.559c-0.99,0.514-1.922,1.958-2.836,2.325l-6.786,25.804c-0.24-0.839-9.345-22.863-9.812-26.241
						l0,0c-0.592-0.264-1.069-1.225-1.692-1.548c-1.536,0.354-4.274,0.186-6.262,0.325c0.053,0.968,0.683,6.507,0.744,7.798
						l3.048,0.717l-2.12,2.336c0.904,1.865,15.833,22.447,15.833,22.447c0.383-0.609,12.503-19.365,13.961-23.144L151.4,108.732z"/>
					<polygon fill="#2E96A6" points="147.148,99.468 153.703,100.582 153.703,107.375 149.518,108.251 152.666,111.313 
						139.727,133.066 139.727,126.885 					"/>
					<polygon fill="#2E96A6" points="129.488,99.468 123.089,101.272 123.811,108.027 128.064,108.453 125.26,111.832 
						139.795,132.955 139.795,126.639 					"/>
					<path opacity="0.5" fill="#52ACB5" d="M118.153,118.113c-0.043,0.117-0.979,0.641-1.021,0.757v0.001
						c-0.521,1.408-1.006,2.829-1.486,4.252c1.105,4.717,2.063,9.471,2.725,14.271c0.678,4.909,0.938,9.837,0.836,14.791h0.002
						c-0.248,12.364-2.365,24.221-2.61,25.438c0,0,1.131,0.266,2.878,0.483c0.966-5.354,4.046-17.823,4.728-30.037
						C124.121,144.145,119.591,122.547,118.153,118.113z"/>
					<path opacity="0.5" fill="#52ACB5" d="M117.26,118.525C117.309,118.392,117.326,118.349,117.26,118.525L117.26,118.525z"/>
					<path opacity="0.5" fill="#52ACB5" d="M158.691,147.522c0.003-0.128,0.008-0.258,0.015-0.387
						c0.034-0.748,0.077-1.497,0.13-2.247c0.009-0.143,0.021-0.284,0.032-0.426c0.057-0.775,0.124-1.551,0.203-2.325
						c0.074-0.697,0.158-1.399,0.245-2.103c1.106-8.741,3.437-17.953,5.246-24.93c-2.026,1.49-8.073,12.967-9.012,17.756
						c-3.432,17.521-0.3,37.264,2.916,45.04c1.645-0.135,2.748-0.277,2.748-0.277c-0.272-1.351-2.558-12.577-2.61-25.437
						C158.6,150.652,158.626,149.092,158.691,147.522z"/>
					<path opacity="0.55" fill="#DCB890" d="M138.395,98.759c4.643,0,6.741-1.511,7.346-1.871c-1.735-3.348-1.739-8.076-1.739-8.076
						h-10.305c0,0,0,5.078-1.933,8.436C132.078,97.38,135.537,98.759,138.395,98.759z"/>
					<polygon fill="#394962" points="131.45,97.557 127.146,100.291 135.001,110.438 138.96,103.09 					"/>
					<polygon fill="#394962" points="146.307,97.557 150.608,100.291 142.756,110.438 138.797,103.09 					"/>
					<g>
						<g>
							<path fill="#F2AB88" d="M123.824,78.618c1.691-2.292,5.524,1.44,5.524,1.44s2.381,2.781-0.392,6.143
								c-1.386,1.682-2.987,0.411-4.059-1.588C123.829,82.615,122.618,80.251,123.824,78.618z"/>
							<path fill="#DB7A5B" d="M126.256,84.844c0.373,0.378,0.849,0.683,1.41,0.582c0.235-0.043,0.455-0.395,0.392-0.595
								c-0.161-0.497-1.749-1.382-1.352-2.77c0.398-1.402-1.38-2.745-1.937-1.974C124.339,80.688,124.859,83.429,126.256,84.844z"/>
						</g>
						<g>
							<path fill="#F2AB88" d="M153.916,78.618c-1.689-2.292-5.524,1.44-5.524,1.44s-2.381,2.781,0.392,6.143
								c1.386,1.682,2.987,0.411,4.059-1.588C153.912,82.615,155.12,80.251,153.916,78.618z"/>
							<path fill="#DB7A5B" d="M151.484,84.844c-0.373,0.378-0.849,0.683-1.41,0.582c-0.235-0.043-0.455-0.395-0.391-0.595
								c0.16-0.497,1.746-1.382,1.351-2.77c-0.398-1.402,1.38-2.745,1.935-1.974C153.401,80.688,152.881,83.429,151.484,84.844z"/>
						</g>
						<path fill="#F2AB88" d="M151.387,67.75c-0.334-1.875-1.616-3.459-3.238-4.756c-5.43-4.337-13.054-4.337-18.482,0
							c-1.623,1.297-2.904,2.881-3.239,4.756c0,0-0.794,14.733,2.88,20.382c2.847,4.377,6.43,6.75,9.6,6.75
							c3.171,0,6.756-2.373,9.601-6.75C152.183,82.483,151.387,67.75,151.387,67.75z"/>
						<path fill="#995235" d="M127.688,79.585c-0.405-6.443,0.288-11.233,0.661-11.801c1.329-1.077,3.14-2.928,4.275-5.69
							c0,0,5.3,2.571,13.686,1.542c0,0,1.56,2.196,2.972,4.456c0.683,1.092,0.978,7.39,0.788,11.476
							c-0.028,0.602,0.206,1.186,0.641,1.583l0.275,0.25c1.034-2.093,2.06-10.908,1.535-13.823
							c-1.475-8.214-7.413-9.082-13.326-9.082c-2.313,0-4.895,0.55-7.122,1.629c-0.456-0.134-1.146-0.294-1.132-0.384
							c-3.164,0.211-4.782,4.705-5.716,7.836c-0.945,3.17,0.501,11.73,1.534,13.823l0.011-0.006
							C127.377,81.019,127.736,80.32,127.688,79.585z"/>
						<path opacity="0.35" fill="#995235" d="M131.107,63.013c0.297,0.13,0.592,0.266,0.879,0.407
							c0.229-0.418,0.445-0.855,0.639-1.326c0,0,5.3,2.571,13.686,1.542c0,0,1.323,1.865,2.635,3.925
							c1.381-0.452,2.196-0.838,3.225-1.518c-1.912-6.789-7.453-7.547-12.975-7.547c-2.313,0-4.895,0.55-7.122,1.629
							c-0.456-0.134-1.146-0.294-1.132-0.384c-0.964,0.064-1.78,0.531-2.481,1.231c0.005,0.008,0.016,0.02,0.028,0.038
							C129.182,61.884,130.084,62.568,131.107,63.013z"/>
						<path fill="#995235" d="M152.789,58.165c0,2.885-4.734,1.67-10.929-1.822c-6.069-3.424-9.085-0.453-10.312,1.517
							c0.309-2.065,1.422-3.947,1.422-3.947c-3.146,1.48-2.934,4.04-2.517,5.458c-1.122-0.226-2.795-0.282-4.1,0.881
							c0,0,3.205-0.502,4.389,0.511c0.153,0.131,0.647,0.362,0.705,0.415c3.321,3.655,6.601,5.43,13.438,4.935
							c3.775-0.274,5.034-0.712,6.829-2.633C153.846,61.201,152.789,58.165,152.789,58.165z"/>
						<path opacity="0.5" fill="#995235" d="M144.887,66.112c3.558-0.258,4.879-0.663,6.521-2.314
							c-2.443,0.207-5.199-0.827-7.089-2.525c-0.063,0.942,0.408,2.2,1.665,3.645c-3.018-0.502-5.698-1.445-8.212-3.456
							c0.504,1.006,1.016,2.671,1.518,3.173c-1.559,0-5.71-1.818-6.645-2.236C135.604,65.218,138.867,66.547,144.887,66.112z"/>
						<g>
							<path fill="#CE7959" d="M138.468,84.828c-0.383,0-0.772-0.076-1.093-0.203c-0.584-0.231-0.947-0.61-1.025-1.068
								c-0.11-0.647,1.921-9.553,1.914-9.592c-0.027-0.14,0.064-0.274,0.204-0.301c0.142-0.025,0.274,0.066,0.3,0.206
								c0.031,0.165-1.985,9.172-1.91,9.601c0.044,0.269,0.301,0.515,0.706,0.675c0.624,0.246,1.403,0.218,1.776-0.066
								c0.114-0.085,0.274-0.064,0.361,0.05c0.087,0.112,0.063,0.274-0.05,0.36C139.339,84.729,138.906,84.828,138.468,84.828z"/>
						</g>
						<path fill="#884627" d="M142.235,69.227c0,0,3.586,0.468,4.371,0.992c0.784,0.523,2.33,2.329,2.108,2.857
							c-0.223,0.529-2.82-1.308-3.181-1.31c-0.361-0.001-3.757-0.475-3.935-0.999C141.396,70.161,141.639,69.118,142.235,69.227z"/>
						<path fill="#884627" d="M135.023,69.319c0,0-3.601,0.366-4.396,0.867c-0.796,0.501-2.374,2.258-2.161,2.792
							c0.215,0.533,2.848-1.227,3.21-1.218c0.361,0.008,3.772-0.37,3.959-0.888C135.851,70.273,135.623,69.227,135.023,69.319z"/>
						
							<radialGradient id="SVGID_3_" cx="167.7578" cy="82.165" r="2.359" gradientTransform="matrix(1.1695 0 0 1 -50.4893 0)" gradientUnits="userSpaceOnUse">
							<stop  offset="0" style="stop-color:#F29788"/>
							<stop  offset="0.6119" style="stop-color:#F2A388"/>
							<stop  offset="0.9198" style="stop-color:#F2AB88"/>
						</radialGradient>
						<ellipse fill="url(#SVGID_3_)" cx="145.704" cy="82.165" rx="2.956" ry="2.178"/>
						
							<radialGradient id="SVGID_4_" cx="362.0825" cy="82.165" r="2.359" gradientTransform="matrix(-1.1695 0 0 1 555.5078 0)" gradientUnits="userSpaceOnUse">
							<stop  offset="0" style="stop-color:#F29788"/>
							<stop  offset="0.6119" style="stop-color:#F2A388"/>
							<stop  offset="0.9198" style="stop-color:#F2AB88"/>
						</radialGradient>
						<ellipse fill="url(#SVGID_4_)" cx="132.052" cy="82.165" rx="2.956" ry="2.178"/>
						<path opacity="0.35" fill="#995235" d="M127.579,74.671c-0.838-0.032-1.646-0.186-2.411-0.448
							c0.357,3.034,1.033,6.048,1.592,7.178l0.011-0.006c0.606-0.376,0.966-1.075,0.918-1.81
							C127.576,77.796,127.552,76.146,127.579,74.671z"/>
						<path opacity="0.35" fill="#995235" d="M150.093,74.798c0.05,1.648,0.044,3.342-0.022,4.77
							c-0.028,0.602,0.206,1.186,0.641,1.583l0.275,0.25c0.583-1.178,1.158-4.48,1.46-7.665
							C151.732,74.221,150.94,74.589,150.093,74.798z"/>
						<g>
							<path fill="#9F1818" d="M133.229,84.981c0,0,6.209,2.222,10.299-0.589c0,0-0.314,4.942-4.875,5.171
								C135.61,89.717,133.806,87.371,133.229,84.981z"/>
							<path fill="#E34848" d="M138.146,87.814c-2.032,0.022-2.91,0.541-2.949,0.558c0.88,0.777,2.027,1.264,3.455,1.191
								c1.285-0.065,2.226-0.507,2.922-1.104C141.375,88.325,139.916,87.796,138.146,87.814z"/>
							<path fill="#FDFAEE" d="M133.955,85.203c0.075,0.299,0.194,0.679,0.263,0.893c0.027,0.092,0.099,0.165,0.188,0.199
								c3.954,1.535,6.553,0.758,7.934-0.18c0.052-0.035,0.089-0.081,0.111-0.139c0.085-0.206,0.3-0.74,0.41-1.181
								C139.683,86.495,135.594,85.653,133.955,85.203z"/>
						</g>
						<g>
							<ellipse fill="#FDFAEE" cx="143.576" cy="76.724" rx="2.657" ry="2.516"/>
							<path fill="#E78660" d="M144.548,78.538c-0.49,0.095-0.913,0.154-1.399,0.153c-0.792,0-1.518-0.352-1.988-0.92
								c0.421,0.866,1.343,1.469,2.415,1.469c1.103,0,2.047-0.635,2.449-1.54C145.604,78.074,145.104,78.43,144.548,78.538z"/>
							<g>
								<ellipse fill="#633837" cx="143.576" cy="76.855" rx="1.558" ry="1.536"/>
								<ellipse fill="#321413" cx="143.575" cy="76.855" rx="0.945" ry="0.934"/>
							</g>
							<path fill="#E78660" d="M141.828,75.963c0.608-0.172,1.262-0.308,1.896-0.258c0.976,0.078,1.727,0.352,2.502,0.905
								c-0.063-1.336-0.572-2.806-2.633-2.942c-1.987-0.131-2.524,1.531-2.662,2.801C141.185,76.238,141.486,76.061,141.828,75.963z
								"/>
						</g>
						<g>
							<ellipse fill="#FDFAEE" cx="133.226" cy="76.724" rx="2.657" ry="2.516"/>
							<path fill="#E78660" d="M132.252,78.538c0.491,0.095,0.915,0.154,1.402,0.153c0.79,0,1.516-0.352,1.985-0.92
								c-0.419,0.866-1.342,1.469-2.413,1.469c-1.102,0-2.047-0.635-2.451-1.54C131.196,78.074,131.697,78.43,132.252,78.538z"/>
							<g>
								<ellipse fill="#633837" cx="133.226" cy="76.855" rx="1.558" ry="1.536"/>
								<ellipse fill="#321413" cx="133.225" cy="76.855" rx="0.947" ry="0.934"/>
							</g>
							<path fill="#E78660" d="M134.971,75.963c-0.606-0.172-1.261-0.308-1.895-0.258c-0.976,0.078-1.727,0.352-2.501,0.905
								c0.063-1.336,0.573-2.806,2.631-2.942c1.987-0.131,2.527,1.531,2.662,2.801C135.615,76.238,135.316,76.061,134.971,75.963z"
								/>
						</g>
						<circle fill="#FDFAEE" cx="133.919" cy="76.488" r="0.306"/>
						<circle fill="#FDFAEE" cx="144.157" cy="76.488" r="0.306"/>
					</g>
					<path fill="#00475E" d="M174.076,138.031c0,0,2.58-5.102,7.144-2.993c4.563,2.11,5.082,5.833,0.927,8.626
						C177.989,146.46,171.43,141.806,174.076,138.031z"/>
					<path fill="#D98967" d="M172.145,140.773l6.22-4.621l6.413,3.215c0,0-3.022,3.86-7.837,5.437
						C172.126,146.379,170.83,141.818,172.145,140.773z"/>
					<path fill="#17899C" d="M166.227,104.476c0.744,1.5,1.833,4.741,3.024,11.735c1.773,10.397,0.724,21.897,0.724,21.897
						l6.814-2.307c0,0-4.235,3.017-0.295,6.076c3.794,2.948,8.075,1.49,8.467-3.077c0,0,0.567,4.188-1.672,5.539
						c-3.864,2.325-18.818,9.678-20.017,9.43c-3.161-0.652-5.075-15.774-1.795-34.868
						C162.341,113.873,165.604,103.217,166.227,104.476z"/>
					<path opacity="0.5" fill="#52ACB5" d="M162.882,144.162c1.252,4.414,9.521-0.534,9.521-0.534c0.94-1.11,2.04-1.922,3.243-2.547
						c0.226,0.265,0.505,0.53,0.848,0.797c3.794,2.948,8.075,1.49,8.467-3.077c0,0,0.567,4.188-1.672,5.539
						c-3.864,2.325-18.818,9.678-20.017,9.43c-2.646-0.547-4.83-11.943-2.568-29.741
						C161.432,129.074,161.506,139.312,162.882,144.162z"/>
					<path fill="#F2AB88" d="M180.341,133.235c0,0-5.689,4.331-4.792,5.794c0.901,1.463,4.024,3.479,7.145,2.568
						c2.506-0.73,5.42-8.455,5.342-9.187c-0.165-1.519-3.132-3.595-3.377-3.64C184.411,128.725,180.341,133.235,180.341,133.235z"/>
					<g>
						<g>
							<polygon fill="#3E2D2C" points="174.45,116.154 162.882,148.045 163.778,148.575 175.968,145.924 192.396,112.471 
								191.305,112.072 							"/>
							<polygon fill="#594B4A" points="175.347,116.684 163.778,148.575 176.863,146.453 192.396,112.471 							"/>
							<path opacity="0.32" fill="#434036" d="M182.314,130.535c-3.932,2.523-8.675,2.453-12.103,0.305l-6.434,17.735l13.085-2.122
								l8.384-18.34C184.338,129.028,183.369,129.86,182.314,130.535z"/>
						</g>
						<path opacity="0.5" fill="#8A949A" d="M171.671,135.425c0,0-0.632-0.472-0.548-1.178c0.122-1.034,0.773-1.109,0.773-1.109
							s-0.359-0.708-0.157-1.338c0.382-1.187,1.621-1.062,1.621-1.062c-0.705-0.678-0.154-2.52,1.182-2.693
							c2.909-0.381,7.332-0.396,9.096,0.867c0.375,0.268,0.895,0.219,1.339,0.328c-3.658,2.408-8.187,5.445-12.612,8.547
							C171.254,137.721,170.945,135.979,171.671,135.425z"/>
					</g>
					<g>
						<path fill="#F2AB88" d="M181.899,134.468c-0.476-0.329-1.023-0.547-1.596-0.616c-0.94-0.113-2.333-0.313-2.623-0.525
							c-0.419-0.307-5.177,0.836-5.211-1.425c-0.005-0.295,0.194-0.558,0.47-0.659c0.739-0.274,2.547-0.719,6.148-0.471
							c5.044,0.348,4.423,0.575,4.755,0.719s3.24,2.304,2.981,2.773C186.579,134.712,186.431,137.604,181.899,134.468z"/>
						<path fill="#FFD7C0" d="M174.413,131.191c0,0,0.826,0.567,0.216,1.598c-0.063,0.109-1.782,0.247-1.876-0.861
							C172.707,131.379,174.413,131.191,174.413,131.191z"/>
					</g>
					<g>
						<path fill="#F2AB88" d="M179.887,136.135c0,0-2.172-0.695-2.71-0.764c-0.516-0.066-5.664,0.422-5.269-1.627
							c0.037-0.201,0.188-0.367,0.381-0.428c0.81-0.254,3.306-0.892,6.513-0.297c3.927,0.729,6.072,1.881,6.118,2.654
							C184.967,136.445,184.97,139.272,179.887,136.135z"/>
						<path fill="#FFD7C0" d="M173.5,133.299c0.13-0.022,0.263,0.018,0.351,0.115c0.187,0.208,0.418,0.638,0.065,1.304
							c-0.055,0.104-1.681,0.243-1.693-0.824C172.22,133.563,173.106,133.369,173.5,133.299z"/>
					</g>
					<g>
						<path fill="#F2AB88" d="M178.575,138.377c-0.215-0.129-0.446-0.229-0.689-0.283c-0.704-0.16-2.19-0.496-2.444-0.539
							c-0.3-0.05-2.813,0.088-3.313-1.255c-0.118-0.312,0.067-0.661,0.39-0.739c0.621-0.151,2.159-0.484,4.97-0.127
							c0,0,2.508,0.542,3.107,0.871c0.6,0.33,2.727,1.264,2.587,1.817C183.044,138.662,182.891,140.99,178.575,138.377z"/>
						<path fill="#FFD7C0" d="M173.953,135.697c0,0,0.436,0.711-0.08,1.256c-0.076,0.081-1.738-0.25-1.369-1.088
							C172.581,135.691,173.953,135.697,173.953,135.697z"/>
					</g>
					<g>
						<path fill="#F2AB88" d="M184.011,132.07c-0.376-0.31-0.916-0.703-1.39-0.816c-0.893-0.215-2.595-0.627-3.133-0.781
							c-0.682-0.196-6.083,1.123-5.734-1.209c0.053-0.349,0.298-0.637,0.639-0.719c1.314-0.316,5.172-1.043,9.758-0.051
							c0.339,0.073,0.657,0.23,0.932,0.445c0.954,0.754,3.166,2.611,2.953,3.472c-0.27,1.096-0.854,2.21-1.708,1.484
							C185.704,133.365,184.895,132.803,184.011,132.07z"/>
						<path fill="#FFD7C0" d="M175.679,128.457c0,0,1.136,0.437,0.461,1.78c-0.064,0.128-2.149,0.29-2.164-0.96
							C173.969,128.683,175.679,128.457,175.679,128.457z"/>
					</g>
					<g>
						<circle fill="#394962" cx="141.821" cy="136.274" r="0.975"/>
						<circle fill="#394962" cx="141.759" cy="142.723" r="0.975"/>
						<circle fill="#394962" cx="141.698" cy="149.171" r="0.975"/>
						<path fill="#394962" d="M140.66,155.609c-0.005,0.539,0.428,0.98,0.967,0.986c0.538,0.005,0.979-0.428,0.982-0.967
							c0.008-0.538-0.425-0.979-0.965-0.985C141.106,154.639,140.665,155.072,140.66,155.609z"/>
					</g>
					<path fill="#17899C" d="M111.02,103.732c0,0-1.44,0.633-3.367,7.162c-1.164,3.951-4.105,33.279-4.298,34.641
						c-0.194,1.362,0.181,32.271,1.195,35.874c0,0,7.677-2.51,10.831-0.941c0,0-1.19-28.892-1.426-33.704
						c0.065,1.337-0.918-7.502,6.366-22.584C120.321,124.18,117.844,105.598,111.02,103.732z"/>
				</g>
				<g>
					<g display="none">
						<path display="inline" fill-rule="evenodd" clip-rule="evenodd" fill="#FEAC1A" d="M115.411,104.072l-8.096,28.108
							c-0.792,2.756,2.056,6.268,3.391,6.752c1.17,0.425,4.695-1.713,5.979-4.392l8.433-17.606c3.246-1.474,5.324-9.516,6.17-10.921
							l-6.951-7.188C120.504,99.225,116.773,99.337,115.411,104.072z"/>
						<path display="inline" fill-rule="evenodd" clip-rule="evenodd" fill="#F0C17D" d="M137.888,214.203l0.105,4.402
							c0.302,8.443-1.054,7.658-0.858,15.65c0.268,10.794,1.272,16.502,0.524,27.255c-0.073,1.058-0.138,2.908-0.308,4.611
							l-0.008-0.01c-0.447,3.048-0.905,6.086-1.365,9.131l6.619,6.536l3.051,0.048l3.398-5.935
							c-1.008-4.428-2.481-8.144-3.004-11.436c-0.767-4.787-0.341-9.465,0.526-14.547c1.442-8.459,3.8-12.374,4.263-18.093
							c0.531-6.536-0.359-2.682-0.961-13.278l0.69-3.968h0.01c2.551-10.312,4.482-24.231,5.676-35.129
							c0.744-6.797-0.014-11.657,0.128-14.49c0.201-4.009-5.421-13.642-6.964-20.823l-12.239-0.279l-0.662,29.367l1.536,0.035
							C137.978,183.097,137.647,204.351,137.888,214.203z"/>
						<path display="inline" fill-rule="evenodd" clip-rule="evenodd" fill="#FFDBA7" d="M135.502,214.203l-0.104,4.402
							c-0.301,8.443,1.058,7.658,0.86,15.65c-0.268,10.794-1.272,16.502-0.526,27.255c0.082,1.187,0.155,3.37,0.378,5.229
							c0.206,1.724,0.649,4.016,0.644,4.844l-1.967,4.357c-7.134,2.355-7.595,3.59-9.332-3.359c0.053-1.381,1.088-4.61,1.424-5.904
							c0.19-0.719,0.355-1.495,0.47-2.221c0.767-4.787,0.341-9.465-0.526-14.547c-1.442-8.459-3.798-12.374-4.263-18.093
							c-0.529-6.536,0.358-2.682,0.959-13.278l-0.689-3.968h-0.005c-2.553-10.312-4.484-24.231-5.682-35.129
							c-0.742-6.797,0.018-11.657-0.126-14.49c-0.201-4.009,5.419-13.642,6.964-20.823l12.241-0.279l0.66,29.367l-1.534,0.035
							C135.415,183.097,135.743,204.351,135.502,214.203z"/>
						<path display="inline" fill-rule="evenodd" clip-rule="evenodd" fill="#072C5E" d="M136.741,270.785l0.671,4.458l-6.621,6.536
							l-3.047,0.048l-3.398-5.935l1.273-4.666C126.018,279.057,135.689,277.933,136.741,270.785z"/>
						<path display="inline" fill-rule="evenodd" clip-rule="evenodd" fill="#FFDBA7" d="M148.853,118.849
							c1.685-1.873,4.168-8.714,5.523-13.874c0.696-2.643,1.365-4.901-1.202-5.433c-3.012-0.355-4.803-0.526-6.375-0.961
							c-1.044-0.291-1.951-0.54-3.213-1.615c-1.742-2.35-1.996-6.189-0.952-10.19h-12.383c1.044,4,0.904,8.22-0.568,10.113
							c-1.485,1.954-7.568,2.367-7.989,2.429c-3.693,0.532-1.328,11.729,1.895,17.28
							C126.324,121.309,143.215,118.849,148.853,118.849z"/>
						<path display="inline" fill-rule="evenodd" clip-rule="evenodd" fill="#F0C17D" d="M130.251,86.775
							c0.4,1.537,0.625,3.104,0.668,4.56c2.933,2.5,8.726,4.812,13.034,5.941c-2.171-1.956-2.336-6.597-1.319-10.501H130.251z"/>
						<path display="inline" fill-rule="evenodd" clip-rule="evenodd" fill="#FFDBA7" d="M147.732,72.591
							c1.054-1.566,2.294-0.492,1.909,1.417c-0.315,1.559-1.034,3.332-1.433,5.108c-0.271,1.211-0.706,2.073-1.763,1.858
							c-0.438,1.595-0.999,2.753-1.885,4.183c-1.233,1.987-2.223,3.075-3.523,4.231c-1.921,1.71-3.191,2.583-4.426,2.583
							c-1.206,0-2.374-0.828-4.535-2.707c-1.062-0.923-1.88-1.92-2.938-3.405c-1.077-1.514-1.744-2.972-2.293-4.871
							c-0.985,0.146-1.403-0.698-1.665-1.873c-0.398-1.776-1.121-3.549-1.434-5.108c-0.345-1.705,0.607-2.744,1.566-1.831
							c-0.057-1.595,0.044-3.275,0.354-5.304c1.537-10.036,20.223-8.589,21.878,0.906C147.817,69.319,147.84,70.944,147.732,72.591z
							"/>
						<path display="inline" fill-rule="evenodd" clip-rule="evenodd" fill="#FEAC1A" d="M152.402,127.553l-2.56,16.188
							c0.566,1.344,1.532,4.34,2.581,7.369c2.412,5.328,5.895,12.9,5.741,15.956c-0.177,3.591-3.96,34.836-5.097,41.302h-32.747
							c-1.136-6.466-4.92-37.711-5.097-41.302c-0.15-3.028,3.271-10.502,5.681-15.818c1.063-3.077,2.049-6.144,2.624-7.507
							c-2.004-8.651-2.745-17.611-3.695-26.001c-0.229-1.573-2.057-13.734-3.188-16.113c0.744-1.247,2.135-2.036,4.041-2.309
							c2.36-0.349,4.68-0.905,7.024-1.203l3.951,1.334l5.046,4.072l4.789-4.162l4.167-1.285c1.388,0.641,5.023,0.852,7.038,1.243
							c2.019,0.391,3.278,1.051,4.027,2.284c-1.519,5.302-2.837,12.878-3.05,18.018l-1.064,6.344L152.402,127.553z"/>
						<path display="inline" fill-rule="evenodd" clip-rule="evenodd" fill="#632404" d="M136.551,69.135
							c5.034,0,9.144-3.478,9.144-7.738c0-4.264-4.109-7.738-9.144-7.738c-5.032,0-9.14,3.475-9.14,7.738
							C127.411,65.658,131.519,69.135,136.551,69.135z"/>
						<path display="inline" fill-rule="evenodd" clip-rule="evenodd" fill="#752A05" d="M129.619,66.516
							c-2.329,2.316-3.989,6.568-3.307,12.095c-5.279-14.7,4.162-20.911,10.238-19.768c6.079-1.144,15.521,5.067,10.24,19.768
							C147.377,66.738,130.997,72.633,129.619,66.516z"/>
						<path display="inline" fill-rule="evenodd" clip-rule="evenodd" fill="#072C5E" d="M136.771,270.861l-0.673,4.459l6.619,6.536
							l3.049,0.048l3.402-5.936l-1.277-4.666C147.49,279.132,137.821,278.006,136.771,270.861z"/>
						<path display="inline" fill-rule="evenodd" clip-rule="evenodd" fill="#FEAC1A" d="M136.766,119.621l-11.682-20.785
							c-2.054,0.319-4.308,0.429-4.507,0.458c0.468,3.712,1.699,17.834-1.986,24.499l4.872,21.057h13.316v-25.254L136.766,119.621z"
							/>
						<path display="inline" fill-rule="evenodd" clip-rule="evenodd" fill="#F2F6F7" d="M136.78,103.82l-6.827-7.455
							c-2.374,2.135-4.165,2.421-6.924,2.662c2.482,1.323,6.269,1.8,8.52,1.485L136.78,103.82z"/>
						<path display="inline" fill-rule="evenodd" clip-rule="evenodd" fill="#F2F6F7" d="M136.789,103.82l6.827-7.455
							c2.374,2.135,4.167,2.421,6.923,2.662c-2.483,1.323-6.268,1.8-8.519,1.485L136.789,103.82z"/>
						<path display="inline" fill-rule="evenodd" clip-rule="evenodd" fill="#FEAC1A" d="M155.585,100.499
							c1.291,0.117,2.924,4.894,3.726,8.891c1.011,5.026,2.868,15.999,4.106,23.227c0.935,5.464-1.47,9.108-3.059,9.38
							c-1.601,0.271-5.981-1.513-6.919-4.813c-1.148-4.021-1.856-8.76-3.006-13.453
							C150.541,117.518,152.274,102.332,155.585,100.499z"/>
						<path display="inline" fill-rule="evenodd" clip-rule="evenodd" fill="#FEAC1A" d="M154.665,133.717
							c5.073-0.943,4.448-1.766,8.645,1.033c-0.196,6.861,0.309,8.026-5.935,11.998l-2.71-3.482
							C154.665,143.266,154.536,133.717,154.665,133.717z"/>
						<path display="inline" fill-rule="evenodd" clip-rule="evenodd" fill="#FFC869" d="M107.365,133.646
							c0.016-4.596,4.436-4.786,9.288-4.162c8.506,1.098,19.92,6.43,22.59,7.357l-1.674,4.032
							c-6.557-0.04-21.815,0.685-27.117-2.282C108.602,137.555,107.358,136.001,107.365,133.646z"/>
						<polygon display="inline" fill-rule="evenodd" clip-rule="evenodd" fill="#05345E" points="157.843,124.031 123.309,124.031 
							125.383,148.158 155.769,148.158 						"/>
						<path display="inline" fill-rule="evenodd" clip-rule="evenodd" fill="#FFDBA7" d="M152.909,136.911l-2.791-0.136
							c-0.749-0.034-1.427,0.227-1.531,0.752c-0.226,1.15,0.833,1.361,1.642,1.475c0.76,0.109,1.753,0.26,2.678,0.367
							c1.02,0.119,1.96,0.141,2.422,0.332c0.102,0.041-0.359-0.025-0.467-0.031c-3.31-0.259-4.048-0.278-6.446-1.078
							c-0.659-0.221-1.159-0.432-1.623-0.539c-1.282-0.302-2.268,0.234-1.464,1.681c-0.852,1.101-0.144,2.03,1.131,2.307
							c-0.104,0.525,0.246,0.838,1.37,1.458c1.773,0.977,3.64,1.63,5.513,2.439c2.779,1.197,3.8,1.953,4.76-0.43
							c1.414-0.31,1.874-1.004,1.421-2.483c1.262-0.839,1.42-1.792,0.838-2.937c0.64-2.223-0.212-3.258-1.295-3.74
							c-0.892-0.397-1.809-0.375-3.348,0.092C155.079,136.633,154.193,136.822,152.909,136.911z"/>
					</g>
					<g>
						<g>
							<g>
								<rect x="74.55" y="89.205" fill-rule="evenodd" clip-rule="evenodd" fill="#D8BD76" width="41.163" height="34.924"/>
								<rect x="74.55" y="89.205" fill-rule="evenodd" clip-rule="evenodd" fill="#C4AA68" width="41.231" height="7.702"/>
								<rect x="73.532" y="88.657" fill-rule="evenodd" clip-rule="evenodd" fill="#E7D691" width="43.196" height="6.186"/>
							</g>
							<g>
								<rect x="99.322" y="97.697" fill-rule="evenodd" clip-rule="evenodd" fill="#DFE9F2" width="14.021" height="6.362"/>
								<g>
									<rect x="100.346" y="98.512" fill-rule="evenodd" clip-rule="evenodd" fill="#818286" width="1.491" height="4.731"/>
									<rect x="103.006" y="98.512" fill-rule="evenodd" clip-rule="evenodd" fill="#818286" width="1.49" height="4.731"/>
									<rect x="105.754" y="98.512" fill-rule="evenodd" clip-rule="evenodd" fill="#818286" width="1.492" height="4.731"/>
									<rect x="108.274" y="98.512" fill-rule="evenodd" clip-rule="evenodd" fill="#818286" width="1.49" height="4.731"/>
									<rect x="110.827" y="98.512" fill-rule="evenodd" clip-rule="evenodd" fill="#818286" width="1.49" height="4.731"/>
								</g>
							</g>
						</g>
						<g>
							<path fill-rule="evenodd" clip-rule="evenodd" fill="#4C77B0" d="M71.637,42.673c0.346,8.167-6.403,8.937-14.458,8.235
								l-0.446-4.694l1.938-2.571l3.316-1.155L71.637,42.673z"/>
							<g>
								<path fill-rule="evenodd" clip-rule="evenodd" fill="#F0C17D" d="M39.709,61.445l-1.717,9.658L49.5,80.23l2.314-2.192
									c2.822-8.226,0.41-7.39,3.126-17.346l-12.316-6.78C41.932,59.739,40.712,57.305,39.709,61.445z"/>
								<path fill-rule="evenodd" clip-rule="evenodd" fill="#FFDBA7" d="M62.505,59.081c-0.165,0.748-0.095,1.182,0.567,1.725
									c0.068,0.532-0.295,1.116-0.865,1.278c-2.362-0.292-1.544,1.282-1.361,1.312c1.713,0.254,1.47,0.874,1.146,1.411
									c-0.489,0.092-0.71,0.278-0.773,0.519c-0.19,0.746,1.119,2.286,0,3.542c-1.35,1.512-8.265-2.054-11.483-3.702
									c-2.669-1.363-1.751-3.196-1.407-6.091c-1.536,0.175-2.709-0.304-2.739-2.698c-1.951-2.856-2.586-5.157-3.804-8.381
									c0,0,5.23-12.664,5.543-12.736c0.315-0.072,10.221,1.396,10.221,1.396c1.163,1.931,3.081,3.733,4.295,5.986
									c1.677,3.118,1.691,4.985,2.074,6.467c0.322,1.258,0.127,1.853-0.159,2.471c-0.133,0.286-0.359,0.634-0.366,0.939
									c-0.051,2.438,2.275,4.616,2.134,5.29C65.412,58.362,64.261,59.306,62.505,59.081z"/>
								<path fill-rule="evenodd" clip-rule="evenodd" fill="#632404" d="M52.866,51.403c-0.036,0.924-0.887,2.625-0.872,4.48
									c-1.167-1.209-1.449-2.132-2.411-3.129c-1.353-1.265-3.077-2.493-4.368-1.984c-1.483,0.588-0.726,3.325,0.466,5.213
									c0.641,1.012,0.702,2.096,0.458,2.8c-0.542,1.558-2.127,0.835-3.549,2.378c-1.161,1.258-2.895,2.828-3.428,3.69
									c-0.272-2.462-0.186-4.789-1.742-7.147c-0.811-1.226-1.473-2.952-1.88-4.832c-1.657-7.633,2.694-13.966,8.372-16.271
									c7.297-2.965,15.742,0.252,17.825,5.825c-1.216-0.061-3.532,0.573-5.838,1.593c-2.262,2.397-2.839,5.627-2.255,8.307
									L52.866,51.403z"/>
							</g>
							<path fill-rule="evenodd" clip-rule="evenodd" fill="#6492D0" d="M35.598,53.748c-0.363-1.123-0.634-2.354-0.789-3.6
								c-0.886-7.137,4.237-13.972,10.182-15.419c7.951-1.932,12.896,0.786,15.87,5.032c0.746,1.064,1.318,2.084,1.81,3.227
								c-4.942,1.892-9.578,3.751-14.596,5.585C43.673,50.186,39.162,50.951,35.598,53.748z"/>
							<path fill-rule="evenodd" clip-rule="evenodd" fill="#76A5E3" d="M62.44,42.505c4.116-0.127,5.489,0.019,9.199,0.118
								c-4.4,5.146-12.9,4.244-19.249,4.236C54.298,45.313,59.479,42.57,62.44,42.505z"/>
						</g>
						<path fill-rule="evenodd" clip-rule="evenodd" d="M38.684,259.997c-1.376,14.019,12.304,12.214,16.127,12.791
							c3.823,0.115,3.959,2.317,4.058,3.658c0.359,4.897-10.349,4.408-13.997,4.227c-5.262-0.261-8.881-2.878-11.708-0.945
							c-0.763,0.521-5.956,0.488-7.042,0.211c-2.485-0.639-2.551-4.742-2.514-7.425c0.056-3.794,1.795-5.54,4.035-9.492l0.632-3.024
							H38.684z"/>
						<path fill-rule="evenodd" clip-rule="evenodd" fill="#072C5E" d="M25.665,148.426c-0.874,2.597-1.589,5.36-1.792,8.372
							c-0.583,8.627,3.808,33.741,4.186,45.296l-3.1,11.301l0.094,53.641l15.72-0.129l2.92-62.345l4.954-65.069l-12.442-2.94
							c0.138-2.354,0.025-5.178-0.331-9.368c-0.216-2.589-1.226-15.354-1.093-22.725l-1.616,0.175
							c-0.72-7.986-2.435-23.537,1.109-31.143c-1.001,0.735-2.214,1.505-3.803,2.842c-0.378,0.238-0.717,0.476-1.029,0.721
							c-2.975,6.954-2.829,13.142-2.013,25.691c0.417,8.534,1.922,19.208-0.104,22.362l0.039,0.508
							C28.165,133.465,27.383,141.662,25.665,148.426z"/>
						<path fill-rule="evenodd" clip-rule="evenodd" fill="#292C30" d="M37.684,253.604l7.323,0.279
							c0.857,0.034,1.694,1.023,1.538,1.86c-3.718,19.759,12.493,17.452,16.803,18.094c3.835,0.114,4.186,2.319,4.411,3.656
							c0.828,4.901-9.927,4.411-13.591,4.231c-5.29-0.26-9.157-2.881-11.8-0.95c-0.712,0.521-5.907,0.491-7.02,0.215
							c-2.546-0.641-3.007-4.744-3.226-7.425c-0.307-3.796,1.262-5.543,3.125-9.491l0.976-8.689
							C36.318,254.53,36.829,253.539,37.684,253.604z"/>
						<path fill-rule="evenodd" clip-rule="evenodd" fill="#0F4283" d="M37.041,137.505l-1.145,2.642l-1.603-0.142
							c-1.364,10.014-2.84,16.283-1.08,24.037c2.977,17.129,4.988,25.702,6.974,47.171l-5.23,14.773l-2.406,42.861l14.659-0.813
							l8.636-57.699l5.472-45.756c0.899-7.521-0.508-20.854-1.925-29.188L37.041,137.505z"/>
						<path fill-rule="evenodd" clip-rule="evenodd" fill="#6492D0" d="M27.863,78.076c-7.09,8.574-1.283,36.844-0.498,47.54
							c0.504,4.971,0.376,10.081-0.221,14.877c10.522,5.432,29.589,2.203,32.964-0.818c-2.231-18.908,10.216-44.587,6.11-57.411
							c-1.499-4.67-4.036-4.69-8.375-6.814c-2.25-1.104-3.771-2.379-4.951-4.855c-2.381,0.632-11.148-0.361-14.964-1.833
							C35.528,74.352,30.937,74.36,27.863,78.076z"/>
						<path fill-rule="evenodd" clip-rule="evenodd" fill="#76A5E3" d="M53.393,116.036c1.357,7.287,5.179,6.205,7.147,5.907
							c2.799-0.418,4.411-2.616,5.298-7.857c1.127-6.673,0.542-16.989,0.364-19.044c2.067-11.006,1.778-16.854-7.164-17.494
							c-6.845-0.418-8.417,5.664-9.181,10.282C49.087,92.502,52.216,109.716,53.393,116.036z"/>
						<path fill-rule="evenodd" clip-rule="evenodd" fill="#FFDBA7" d="M58.772,124.693c10.167,1.948,16.585,0.227,25.337-0.236
							c0,0.006,6.557,0.293,7.19,0.326c0.843,0.097,1.695,0.847,2.969,1.141c2.907,0.67,7.358,1.022,10.219,0.962
							c0.781-0.015,1.847-0.448,1.366-1.289c-0.501-0.883-1.798-1.409-2.661-1.855c2.643,0.905,3.741,2.602,4.607,1.683
							c0.617-0.654,1.235-1.32,0.602-2.133c-0.447-0.574-1.444-1.163-3.12-2.017c1.259,0.534,2.388,0.993,3.674,1.449l0.38,1.142
							c0.14,0.426,0.099,0.789,0.518,0.744c1.754-0.18,1.955-1.461,1.83-2.385c-0.141-1.047-0.759-1.734-1.51-2.659l1.015,0.786
							c1.406,1.994,2.178,2.881,2.839,2.531c1.088-0.577,0.3-1.619-0.511-3.933c0,0-2.335-2.436-2.651-2.568
							c-0.213-0.092-2.229-0.595-3.553-1.098c-1.66-0.632-1.711-0.782-3.586-0.64c-1.084,0.082-10.062,1.904-11.062,2.402
							l-8.28-1.244c-6.681-1.26-15.705-3.066-21.894-4.727C54.417,108.915,49.922,122.834,58.772,124.693z"/>
						<path fill-rule="evenodd" clip-rule="evenodd" fill="#76A5E3" d="M58.772,124.693c10.167,1.948,16.585,0.227,25.337-0.236
							l7.19,0.326l1.364-7.736l-8.28-1.244c-6.681-1.26-15.705-3.066-21.894-4.727C54.417,108.915,49.922,122.834,58.772,124.693z"
							/>
					</g>
				</g>
				<circle fill="#633837" cx="58.537" cy="52.65" r="1.671"/>
				<circle fill="#321413" cx="58.536" cy="52.65" r="1.135"/>
				<circle fill="#FFFFFF" cx="58.622" cy="52.054" r="0.427"/>
				<g>
					<path fill="#603813" d="M60.137,49.896c0,0-0.088-0.032-0.243-0.087c-0.068-0.021-0.192-0.078-0.259-0.083
						c-0.081-0.02-0.172-0.042-0.271-0.066c-0.119-0.011-0.248-0.023-0.384-0.035l-0.106,0.002
						c-0.035,0.009-0.066,0.039-0.105,0.028l-0.226,0.014c-0.304,0.046-0.637,0.115-0.954,0.247c-0.161,0.06-0.319,0.13-0.467,0.216
						c-0.166,0.087-0.328,0.173-0.486,0.257l-0.23,0.119c-0.026,0.006-0.123,0.087-0.178,0.125c-0.12,0.089-0.246,0.217-0.313,0.277
						c-0.101,0.098-0.194,0.187-0.276,0.266c-0.075,0.076-0.141,0.143-0.194,0.197c-0.082,0.1-0.128,0.157-0.128,0.157L55.26,51.6
						c-0.052,0.063-0.146,0.073-0.209,0.021c-0.056-0.045-0.07-0.123-0.038-0.184c0,0,0.053-0.101,0.146-0.278
						c0.051-0.071,0.112-0.157,0.183-0.255c0.074-0.086,0.158-0.184,0.25-0.29c0.13-0.137,0.193-0.251,0.313-0.375
						c0.068-0.064,0.086-0.105,0.199-0.193l0.207-0.156c0.156-0.117,0.261-0.195,0.42-0.33c0.15-0.131,0.314-0.249,0.487-0.357
						c0.34-0.228,0.721-0.395,1.093-0.528c0.096-0.026,0.19-0.052,0.282-0.077c0.045-0.024,0.095-0.008,0.142-0.013l0.135-0.034
						c0.185-0.026,0.359-0.051,0.52-0.074c0.18,0,0.344,0.001,0.49,0.001c0.163,0,0.227,0.021,0.319,0.027
						c0.164,0.019,0.257,0.03,0.257,0.03c0.386,0.044,0.662,0.393,0.618,0.779c-0.044,0.386-0.393,0.662-0.779,0.618
						C60.241,49.926,60.186,49.913,60.137,49.896z"/>
				</g>
			</g>
		</g>
	</g>
</g>
<g id="_x32__x5F_kontrola_x5F_formulare" display="none">
	<g id="bg_4_" display="inline">
	</g>
	<g display="inline">
		<circle fill="#6DBEF2" cx="102" cy="102" r="102"/>
		<g>
			<defs>
				<circle id="SVGID_5_" cx="102" cy="102" r="102"/>
			</defs>
			<clipPath id="SVGID_6_">
				<use xlink:href="#SVGID_5_"  overflow="visible"/>
			</clipPath>
			<path clip-path="url(#SVGID_6_)" fill="#E9ECFF" d="M14,157.364v29.697C14,196.378,15.617,204,17.596,204h164.306
				c1.979,0,3.598-7.622,3.598-16.938v-29.697H14z"/>
			<g clip-path="url(#SVGID_6_)">
				<path fill="#222D6B" d="M75.248,46.67c0,0-6.235-9.13-20.429-7.913C40.626,39.974,33.728,49.51,30.481,62.09
					c-3.246,12.58-11.768,30.059-13.593,34.304c0,0,15.107,14.924,38.063,15.607c22.956,0.687,29.406-4.666,32.497-9.331
					c0,0-2.745-6.697-3.277-13.797C83.64,81.771,84.103,57.829,75.248,46.67z"/>
				<path fill="#F9A993" d="M62.31,86.307c0,0,3.332,9.271,10.011,13.229c0,0-15.844,14.643-29.782-0.183
					c0,0,8.706-7.004,9.125-13.047H62.31z"/>
				<path fill="#FFB89F" d="M133.934,103.276c-0.529-0.745-3.494,2.15-3.975,1.947c-0.482-0.203,3.445-5.739,2.773-6.253
					c-0.675-0.518-3.837,4.407-4.423,4.269c-0.585-0.141,3.353-6.161,2.627-6.595c-1.014-0.605-3.431,5.107-4.351,4.887
					c-0.919-0.22,2.405-5.412,1.028-5.823c-0.921-0.272-4.032,8.08-4.89,7.965c-0.855-0.118-1.066-4.413-1.939-4.09
					c-0.872,0.322-0.164,4.382-0.46,5.99c-0.21,1.144-0.018,2.652,0.112,3.433l-0.073-0.046c0,0-18.87,22.343-19.884,22.532
					c-1.014,0.19-11.97-20.707-11.97-20.707l-11.362,5.884c0,0,18.26,27.999,23.535,29.013c5.219,1.006,22.058-32.714,23.983-33.872
					c0.019-0.012,0.035-0.02,0.053-0.027c0.002-0.002,0.004-0.005,0.007-0.005l0,0c1.271-0.705,2.688-1.864,3.477-2.907
					C129.106,107.673,134.464,104.022,133.934,103.276z"/>
				<g>
					<path fill="#F99121" d="M76.799,98.317c0,0,8.928,0.581,12.475,13.136c0,0-11.976,6.36-13.991,5.944
						C75.283,117.397,74.886,103.779,76.799,98.317z"/>
				</g>
				<path fill="#F9A541" d="M33.935,99.753c2.236-0.855,9.437-3.605,12.76-4.366c0.002,0.002,12.709,12.49,20.716-0.21
					c4.91,1.051,7.837,1.852,9.388,3.141c-0.778,5.479,1.105,9.898,1.108,13.153c1.192,1.672,3.466,3.402,3.198,7.916
					c-0.143,2.396-1.846,6.022-3.301,7.056c0.412,20.117,2.136,34.504,1.063,38.212c-1.298,4.484-18.768,2.871-30.272,2.871
					c-11.508,0-12.561-5.262-12.561-5.262C35.25,122.992,33.935,99.753,33.935,99.753z"/>
				<path fill="#FFB96C" d="M42.539,96.623c0.002,0.002,6.41,8.075,15.424,8.075c9.242,0,13.272-8.636,13.277-8.64
					c-1.117-0.285-2.385-0.573-3.829-0.882c-8.007,12.7-20.714,0.212-20.716,0.21l-4.15,1.234
					C42.542,96.623,42.541,96.623,42.539,96.623z"/>
				<path fill="#FFB89F" d="M36.323,69.815c0,2.276,1.295,4.116,2.895,4.116c1.595,0,2.889-1.84,2.889-4.116
					c0-2.275-1.294-4.116-2.889-4.116C37.618,65.699,36.323,67.54,36.323,69.815z"/>
				<g>
					<path fill="#FFB89F" d="M39.034,67.709c0,13.324,8.334,24.126,18.598,24.126c10.277,0,18.605-10.802,18.605-24.126
						c0-13.327-8.328-24.133-18.605-24.133C47.368,43.576,39.034,54.382,39.034,67.709z"/>
					<path fill="#222D6B" d="M76.237,69.815c0,0-6.17-7.618-9.602-14.64c0,0-19.228,11.414-25.344,11.777
						c0,0-1.839-2.014-3.628-0.605c0,0-1.34-23.583,17.471-25.908C76.195,37.835,81.127,57.221,76.237,69.815z"/>
					<g>
						<defs>
							<path id="SVGID_7_" d="M39.034,67.709c0,13.324,8.334,24.126,18.598,24.126c10.277,0,18.605-10.802,18.605-24.126
								c0-13.327-8.328-24.133-18.605-24.133C47.368,43.576,39.034,54.382,39.034,67.709z"/>
						</defs>
						<clipPath id="SVGID_8_">
							<use xlink:href="#SVGID_7_"  overflow="visible"/>
						</clipPath>
						<g clip-path="url(#SVGID_8_)">
							
								<ellipse transform="matrix(0.983 0.1838 -0.1838 0.983 14.4963 -7.9889)" fill="none" cx="50.351" cy="74.218" rx="4.514" ry="2.84"/>
							
								<ellipse transform="matrix(0.983 0.1839 -0.1839 0.983 15.7664 -12.3762)" fill="none" cx="74.619" cy="78.828" rx="4.514" ry="2.841"/>
						</g>
					</g>
					<g>
						<g>
							
								<ellipse transform="matrix(-0.9947 -0.1032 0.1032 -0.9947 132.5691 149.4665)" fill="#563E58" cx="70.15" cy="71.305" rx="1.06" ry="2.649"/>
							
								<ellipse transform="matrix(-0.9947 -0.1032 0.1032 -0.9947 104.3512 144.3285)" fill="#563E58" cx="55.909" cy="69.465" rx="1.06" ry="2.651"/>
						</g>
						<path fill="#F4A99D" d="M63.568,75.76c0,0,0.085,0.391,0.23,0.896c0.064,0.258,0.146,0.543,0.205,0.83
							c0.029,0.143,0.051,0.286,0.062,0.42c0.007,0.131,0.016,0.262-0.01,0.36c-0.001,0.056-0.021,0.097-0.033,0.142l-0.008,0.034
							l0,0c0.048-0.089,0.012-0.022,0.022-0.044l-0.001,0.004l-0.004,0.01l-0.007,0.014l-0.015,0.029l-0.063,0.116
							c-0.041,0.077-0.082,0.157-0.118,0.233c-0.036,0.049-0.072,0.096-0.104,0.148c-0.051,0.104-0.151,0.217-0.233,0.326
							c-0.078,0.117-0.176,0.21-0.254,0.313c-0.181,0.198-0.332,0.363-0.438,0.479c-0.112,0.117-0.18,0.193-0.18,0.193
							s0.407,0.061,0.962-0.148c0.135-0.06,0.294-0.107,0.437-0.205c0.148-0.094,0.304-0.183,0.458-0.344
							c0.078-0.076,0.153-0.155,0.229-0.238c0.055-0.07,0.104-0.141,0.153-0.215l0.074-0.109l0.019-0.029l0.01-0.012l0.005-0.007
							l0.028-0.054l0.036-0.092c0.048-0.123,0.093-0.247,0.105-0.372c0.044-0.252,0.021-0.485-0.021-0.7
							c-0.042-0.211-0.115-0.404-0.197-0.576c-0.166-0.344-0.374-0.616-0.577-0.822C63.941,75.922,63.568,75.76,63.568,75.76z"/>
						<path fill="#FFFFFF" d="M67.943,83.181l-12.493-1.542c0,0,2.536,4.041,6.302,4.506S67.943,83.181,67.943,83.181z"/>
					</g>
				</g>
				<path fill="#FFB89F" d="M29.858,119.652c0,0,2.769,30.07,4.686,32.117C36.46,153.815,71.24,155,71.24,155h14.632
					c0,0-5.799-7.289-13.551-4.651c0,0-24.613-6.898-26.632-8.317c-2.019-1.422-2.216-22.612-2.216-22.612L29.858,119.652z"/>
				<path fill="#F99121" d="M45.688,119.879c0,0-1.947-17.403-9.405-20.07c-7.455-2.668-6.946,13.096-7.982,19.649
					C28.301,119.458,36.362,120.666,45.688,119.879z"/>
				<g>
					<g>
						<g>
							<path fill="#1B4DED" d="M49.074,84.344l6.189,2.572l0.56-1.346l-6.188-2.573c-3.121-1.298-5.832-4.61-5.921-7.235
								l-0.18-5.313l-1.458,0.049l0.18,5.313C42.365,78.998,45.422,82.824,49.074,84.344z"/>
						</g>
						
							<ellipse transform="matrix(-0.9234 -0.3838 0.3838 -0.9234 73.6167 186.9376)" fill="#1B4DED" cx="55.46" cy="86.124" rx="2.586" ry="1.945"/>
					</g>
					<g>
						<path fill="#1B4DED" d="M78.726,52.304c0,0-6.029-6.078-15.997-5.563c-9.967,0.515-18.021,8.261-19.777,19.334l-2.881-0.238
							c0,0-0.194-12.919,8.752-19.273c6.58-4.675,14.535-5.471,24.485-1.109C73.309,45.454,77.443,47.879,78.726,52.304z"/>
						<path fill="#6785FF" d="M78.36,51.298c0,0-6.028-6.078-15.996-5.563c-9.967,0.514-18.021,8.26-19.778,19.333l-2.88-0.239
							c0,0-0.193-12.918,8.753-19.273c6.58-4.674,14.535-5.471,24.484-1.108C72.943,44.448,77.078,46.874,78.36,51.298z"/>
						<g>
							
								<ellipse transform="matrix(-0.9966 -0.0826 0.0826 -0.9966 76.2775 143.7946)" fill="#1B4DED" cx="41.113" cy="70.32" rx="6.155" ry="7.707"/>
							
								<ellipse transform="matrix(-0.9966 -0.0827 0.0827 -0.9966 72.7542 143.3581)" fill="#6785FF" cx="39.345" cy="70.173" rx="6.155" ry="7.709"/>
						</g>
					</g>
				</g>
				<g>
					<g>
						<g>
							<polygon fill="#1B4DED" points="87.448,157.364 160.77,157.364 173.26,105.443 99.938,105.443 							"/>
							<polygon fill="#6785FF" points="91.063,157.364 164.385,157.364 176.876,105.443 103.554,105.443 							"/>
						</g>
						<polygon fill="#1B4DED" points="51.698,157.364 89.922,157.364 91.063,153.939 51.698,153.939 						"/>
					</g>
					<path fill="#FFFFFF" d="M127.773,132.72c0,3.421,2.774,6.194,6.197,6.194c3.421,0,6.194-2.773,6.194-6.194
						c0-3.424-2.773-6.197-6.194-6.197C130.548,126.522,127.773,129.296,127.773,132.72z"/>
				</g>
				<polygon fill="#FFFFFF" points="109.071,47.604 107.226,43.789 105.379,47.604 101.779,49.355 105.379,51.108 107.226,54.922 
					109.071,51.108 112.67,49.355 				"/>
				<polygon fill="#FFFFFF" points="141.309,85.833 140.165,83.473 139.024,85.833 136.798,86.916 139.024,88 140.165,90.359 
					141.309,88 143.533,86.916 				"/>
				<polygon fill="#FFFFFF" points="159.169,52.7 158.512,51.343 157.855,52.7 156.575,53.323 157.855,53.945 158.512,55.302 
					159.169,53.945 160.448,53.323 				"/>
				<polygon fill="#FFFFFF" points="181.387,140.507 180.244,138.147 179.103,140.507 176.876,141.591 179.103,142.675 
					180.244,145.034 181.387,142.675 183.611,141.591 				"/>
			</g>
		</g>
	</g>
</g>
<g id="_x31__x5F_info_x5F_o_x5F_vas" display="none">
	<g id="bg_3_" display="inline">
	</g>
	<g display="inline">
		<circle fill="#6DBEF2" cx="103" cy="102" r="102"/>
		<g>
			<defs>
				<circle id="SVGID_9_" cx="102" cy="102" r="102"/>
			</defs>
			<clipPath id="SVGID_10_">
				<use xlink:href="#SVGID_9_"  overflow="visible"/>
			</clipPath>
			<g clip-path="url(#SVGID_10_)">
				<path fill="#17899C" d="M116.164,125.307c0,0-4.338,0.346-6.766,2.578c-1.022,0.939-1.414,2.986-2.135,5.012
					c-1.248,3.504-8.641,48.203-0.408,54.79c5.844,4.675,13-11.683,13.838-32.221C121.035,147.063,116.027,126.81,116.164,125.307z"
					/>
				<path fill="#F2AB88" d="M158.803,345.399l9.35,0.81c0,0,6.467,8.387,8.084,9.599c1.616,1.212,12.023,3.638,11.619,5.558
					s-2.931,4.143-6.871,3.738s-7.274-0.708-8.791-1.213c-1.412-0.471-7.654-2.259-14.932-3.263
					c-0.83-0.114-1.488-0.718-1.693-1.502C157.035,355.165,157.438,351.045,158.803,345.399z"/>
				<path fill="#5C3F31" d="M157.289,350.023c3.378,1.32,5.656,2.29,8.467,2.134c0.14-0.008,0.309-0.031,0.496-0.066
					c2.563,2.378,4.957,3.987,4.159,2.505c-0.327-0.608-1.267-2.008-1.806-3.157c0.836-0.354,2.354-1.101,2.853-1.483
					c2.038,2.518,5.546,5.19,6.45,5.869c1.82,1.365,13.543,4.096,13.088,6.258c-0.455,2.163-3.301,4.666-7.739,4.211
					s-12.526-1.99-15.017-2.653c-1.096-0.947-2.459-1.756-4.357-1.756c-0.566,0-1.098,0.056-1.598,0.155
					c-1.479-0.285-3.06-0.555-4.738-0.787c-1.08-0.148-1.906-1.033-1.979-2.121C155.428,356.975,156.561,353.32,157.289,350.023z"/>
				<path fill="#371909" d="M155.641,357.523c1.143,0.305,2.55,0.448,4.922,0.987c6.617,1.503,6.834,3.399,9.303,4.159
					c6.796,2.091,12.395,2.32,14.021,2.168c2.448,0.031,5.281-0.591,7.115-2.914c0.002,0.053,0.004,0.106-0.006,0.158
					c-0.455,2.163-3.301,4.666-7.739,4.211s-12.526-1.99-15.017-2.653c-1.096-0.947-2.459-1.756-4.357-1.756
					c-0.566,0-1.098,0.056-1.598,0.155c-1.479-0.285-3.06-0.555-4.738-0.787c-1.08-0.148-1.906-1.033-1.979-2.121
					C155.564,359.054,155.641,357.523,155.641,357.523z"/>
				<path fill="#F2AB88" d="M140.234,345.399l-9.35,0.81c0,0-6.467,8.387-8.084,9.599s-12.023,3.638-11.62,5.558
					c0.405,1.92,2.931,4.143,6.871,3.738s7.274-0.708,8.79-1.213c1.414-0.471,7.655-2.259,14.934-3.263
					c0.829-0.114,1.487-0.718,1.692-1.502C142.002,355.165,141.6,351.045,140.234,345.399z"/>
				<path fill="#5C3F31" d="M141.748,350.023c-3.379,1.32-5.658,2.29-8.467,2.134c-0.141-0.008-0.31-0.031-0.496-0.066
					c-2.564,2.378-4.957,3.987-4.16,2.505c0.327-0.608,1.268-2.008,1.807-3.157c-0.836-0.354-2.354-1.101-2.854-1.483
					c-2.038,2.518-5.545,5.19-6.449,5.869c-1.82,1.365-13.543,4.096-13.088,6.258c0.456,2.163,3.301,4.666,7.738,4.211
					c4.439-0.455,12.525-1.99,15.016-2.653c1.098-0.947,2.461-1.756,4.359-1.756c0.565,0,1.098,0.056,1.598,0.155
					c1.478-0.285,3.06-0.555,4.738-0.787c1.08-0.148,1.906-1.033,1.978-2.121C143.609,356.975,142.477,353.32,141.748,350.023z"/>
				<path fill="#371909" d="M143.396,357.523c-1.144,0.305-2.55,0.448-4.921,0.987c-6.617,1.503-6.834,3.399-9.304,4.159
					c-6.795,2.091-12.394,2.32-14.021,2.168c-2.448,0.031-5.281-0.591-7.115-2.914c-0.002,0.053-0.005,0.106,0.006,0.158
					c0.456,2.163,3.301,4.666,7.738,4.211c4.439-0.455,12.525-1.99,15.016-2.653c1.098-0.947,2.461-1.756,4.359-1.756
					c0.565,0,1.098,0.056,1.598,0.155c1.478-0.285,3.06-0.555,4.738-0.787c1.08-0.148,1.906-1.033,1.978-2.121
					C143.473,359.054,143.396,357.523,143.396,357.523z"/>
				<path fill="#28567A" d="M172.496,278.265c4.324-50.084-0.707-72.081-0.707-72.081l-24.832-15.652l-25.396,15.652
					c0,0-1.955,22.756,2.369,72.84c0,0,1.69,49.599,1.735,70.109c0,0,11.459,3.065,17.802-0.273c0,0-0.55-54.149-0.719-62.85
					c-0.135-6.943,1.448-38.387,2.905-52.996c0.123-1.231,1.919-1.231,2.041,0c1.457,14.609,5.227,46.053,5.092,52.996
					c-0.168,8.7,3.432,62.85,3.432,62.85c6.342,3.339,17.491,0.273,17.491,0.273C173.755,328.622,172.496,278.265,172.496,278.265z"
					/>
				<path opacity="0.35" fill="#28567A" d="M121.303,234.739c3.914,0.36,13.51,0.844,18.521-0.877
					c3.404-1.168,7.102-4.097,10.883-1.615c6.586,4.322,15.536,2.975,23.471,1.482c-0.405-18.862-2.389-27.546-2.389-27.546
					l-24.832-15.652l-25.396,15.652C121.562,206.184,120.779,215.324,121.303,234.739z"/>
				<path fill="#F2AB88" d="M127.135,125.301c1.439-0.943,3.101-2.009,4.582-3.173c0.768-0.174,1.476-0.377,2.09-0.628
					c6.436-2.621,6.436-15.252,6.436-15.252h14.301c0,0,0,12.631,6.435,15.252c2.092,0.853,5.191,1.201,8.503,1.455
					c-0.09,0.178-0.178,0.356-0.271,0.533c-0.04,0.077-0.073,0.143-0.108,0.211c-1.537,1.804-3.272,3.449-4.861,5.203
					c-1.633,1.805-3.081,3.76-4.762,5.531c-0.094,0.1-0.205,0.207-0.326,0.316c-1.145,0.783-2.341,1.493-3.532,2.197
					c-0.013,0.008-0.024,0.015-0.038,0.021c-3.436,0.504-6.791,1.241-10.166,1.94c-1.814-0.44-3.604-0.991-5.378-1.579
					c-0.019-0.006-0.032-0.01-0.051-0.016c-1.471-0.612-2.907-1.303-4.33-2.016c-1.123-0.564-2.206-1.202-3.285-1.844
					c-0.173-0.105-0.337-0.223-0.508-0.33c-0.065-0.051-0.13-0.102-0.204-0.159c-0.186-0.148-0.363-0.306-0.541-0.464
					c-0.445-0.561-1.195-1.5-1.572-2.108c-1.019-1.644-1.985-3.235-2.961-4.792C126.77,125.502,126.959,125.416,127.135,125.301z"/>
				<path fill="#394962" d="M161.739,128.326c-0.999-0.928-2.142-2.246-3.513-2.654c-0.758-0.225-1.533-0.433-2.314-0.633
					c-2.857,0.626-5.488,0.916-7.889,0.939c-2.852-0.028-6.021-0.418-9.516-1.318c-0.807,0.721-1.594,1.47-2.422,2.154
					c-1.053,0.869-2.623,1.895-3.708,3.045c5.213,14.27,16.491,40.112,16.884,41.482l12.936-42.61
					C162.043,128.598,161.888,128.464,161.739,128.326z"/>
				<polygon fill="#BCADB4" points="163.713,124.826 157.74,121.032 147.548,126.059 137.126,121.032 131.153,124.826 
					142.053,138.909 147.434,130.854 152.814,138.909 				"/>
				<path fill="#17899C" d="M175.457,180.247c2.443-23.503,10.918-49.685,9.766-52.247c-2.028-4.518-14.46-4.21-21.754-5.891
					c-1.467,0.76-2.873,1.402-4.227,1.945l0,0l-10.633,35.025c-0.357-1.243-13.248-30.67-13.939-35.674l0,0
					c-0.877-0.391-1.774-0.818-2.696-1.297c-7.296,1.681-20.749,1.787-22.927,6.334c-1.297,2.709,8.109,25.811,10.594,50.789
					c2.105,21.174-2.686,48.072-3.126,50.26c0,0,12.292,2.914,21.366-0.971c3.906-1.673,6.435-6.799,9.553-25.98
					c0,0,2.229,23.311,9.629,26.344c6.247,2.563,21.366,0.607,21.366,0.607C177.956,227.138,173.07,203.181,175.457,180.247z"/>
				<path opacity="0.65" fill="#1D5069" d="M148.609,165.617c0,0-0.452,28.854-1.217,37.17
					C147.393,202.787,146.908,174.339,148.609,165.617z"/>
				<path opacity="0.35" fill="#17909C" d="M164.812,133.889l4.076-0.957c-0.029-0.924-0.046-8.102-0.086-10.048
					c-2.106-0.157-4.572-0.358-6.382-0.774c-1.375,0.713-2.668,2.715-3.936,3.225l-9.418,35.81
					c-0.334-1.166-12.969-31.728-13.615-36.417l0,0c-0.822-0.367-1.484-1.699-2.35-2.148c-2.133,0.491-5.189,0.283-8.627,1.232
					c0.07,1.344,0.885,8.249,0.973,10.042l4.229,0.993l-2.945,3.242c1.26,2.588,21.972,31.15,21.972,31.15
					c0.534-0.845,17.354-26.873,19.378-32.117L164.812,133.889z"/>
				<polygon fill="#2E96A6" points="158.908,121.032 168.004,122.578 168.004,132.008 162.197,133.222 166.566,137.471 
					148.609,167.66 148.609,159.08 				"/>
				<polygon fill="#2E96A6" points="134.4,121.032 125.521,123.536 126.523,132.912 132.426,133.502 128.534,138.191 
					148.702,167.504 148.702,158.737 				"/>
				<path opacity="0.5" fill="#52ACB5" d="M117.432,147.479C117.5,147.294,117.521,147.233,117.432,147.479L117.432,147.479z"/>
				<path opacity="0.5" fill="#52ACB5" d="M169.412,166.215c4.545-23.191,11.605-28.822,13.333-29.51
					c1.666-0.662-0.337,2.227,1.49,1.566c-2.575,9.961-6.654,24.957-8.44,39.057c-0.121,0.976-0.238,1.952-0.338,2.919
					c-0.112,1.073-0.203,2.15-0.284,3.227c-0.015,0.197-0.03,0.394-0.044,0.591c-0.074,1.04-0.135,2.081-0.181,3.118
					c-0.009,0.179-0.015,0.358-0.022,0.538c-0.09,2.177-0.127,4.341-0.117,6.472c0.072,17.849,3.243,33.426,3.62,35.3
					c0,0-1.53,0.197-3.814,0.385C170.154,219.088,164.648,190.531,169.412,166.215z"/>
				<path opacity="0.55" fill="#DCB890" d="M146.762,120.05c6.441,0,9.355-2.098,10.193-2.597
					c-2.41-4.646-2.412-11.205-2.412-11.205h-14.301c0,0-0.002,7.045-2.684,11.705C137.996,118.136,142.795,120.05,146.762,120.05z"
					/>
				<polygon fill="#394962" points="137.126,118.38 131.153,122.174 142.053,136.257 147.548,126.059 				"/>
				<polygon fill="#394962" points="157.74,118.38 163.713,122.174 152.814,136.257 147.318,126.059 				"/>
				<g>
					<g>
						<g>
							<path fill="#F2AB88" d="M126.659,92.088c2.349-3.182,7.671,2,7.671,2s3.306,3.862-0.544,8.53
								c-1.925,2.333-4.146,0.57-5.634-2.205C126.666,97.639,124.985,94.357,126.659,92.088z"/>
							<path fill="#DB7A5B" d="M130.037,100.733c0.516,0.523,1.176,0.947,1.955,0.805c0.328-0.06,0.633-0.545,0.543-0.824
								c-0.223-0.69-2.424-1.919-1.875-3.846c0.554-1.945-1.917-3.81-2.687-2.739C127.373,94.964,128.1,98.769,130.037,100.733z"/>
						</g>
						<g>
							<path fill="#F2AB88" d="M168.438,92.088c-2.348-3.182-7.671,2-7.671,2s-3.306,3.862,0.544,8.53
								c1.925,2.333,4.146,0.57,5.634-2.205S170.111,94.357,168.438,92.088z"/>
							<path fill="#DB7A5B" d="M165.061,100.733c-0.517,0.523-1.176,0.947-1.957,0.805c-0.328-0.06-0.633-0.545-0.543-0.824
								c0.223-0.69,2.424-1.919,1.875-3.846c-0.553-1.945,1.918-3.81,2.688-2.739C167.723,94.964,166.998,98.769,165.061,100.733z"
								/>
						</g>
						<path fill="#F2AB88" d="M164.928,77c-0.466-2.603-2.244-4.801-4.498-6.601c-7.539-6.022-18.121-6.022-25.66,0
							c-2.253,1.8-4.033,3.998-4.497,6.601c0,0-1.104,20.455,3.999,28.297c3.951,6.075,8.928,9.37,13.328,9.37
							s9.377-3.295,13.329-9.37C166.031,97.455,164.928,77,164.928,77z"/>
						<path opacity="0.32" fill="#DCB890" d="M154.594,111.166c0.619-0.909,0.511-2.24,0.057-3.136
							c-0.692-1.368-6.951,4.289-10.691,5.117c-0.527,0.116-1.102,0.126-1.667,0.046c1.794,0.969,3.594,1.475,5.308,1.475
							c2.103,0,4.336-0.755,6.526-2.205C154.176,112.008,154.322,111.564,154.594,111.166z"/>
						<path opacity="0.32" fill="#DCB890" d="M139.277,110.701c-1.534-4.849-3.396-4.201-3.949-3.889
							c1.31,1.777,2.707,3.268,4.145,4.457C139.396,111.089,139.342,110.901,139.277,110.701z"/>
						<path fill="#995235" d="M132.024,93.433c-0.563-8.945,0.399-15.594,0.915-16.385c1.85-1.493,4.362-4.064,5.939-7.898
							c0,0,7.357,3.569,19,2.141c0,0,2.164,3.049,4.123,6.186c0.949,1.518,1.359,10.259,1.096,15.931
							c-0.039,0.837,0.285,1.647,0.891,2.198l0.383,0.348c1.436-2.906,2.855-15.145,2.13-19.191
							C164.453,65.359,156.207,64.154,148,64.154c-3.21,0-6.797,0.764-9.889,2.262c-0.631-0.186-1.59-0.408-1.573-0.534
							c-4.39,0.293-6.637,6.533-7.933,10.88c-1.313,4.401,0.694,16.285,2.131,19.191l0.014-0.008
							C131.593,95.423,132.088,94.453,132.024,93.433z"/>
						<path opacity="0.35" fill="#995235" d="M136.77,70.425c0.416,0.18,0.822,0.369,1.223,0.565
							c0.316-0.579,0.617-1.187,0.887-1.84c0,0,7.357,3.569,19,2.141c0,0,1.836,2.588,3.658,5.448
							c1.915-0.626,3.051-1.162,4.475-2.107c-2.652-9.424-10.348-10.478-18.012-10.478c-3.21,0-6.797,0.764-9.889,2.262
							c-0.631-0.186-1.59-0.408-1.573-0.534c-1.336,0.089-2.47,0.738-3.443,1.71c0.009,0.011,0.022,0.028,0.042,0.052
							C134.098,68.857,135.352,69.807,136.77,70.425z"/>
						<path fill="#995235" d="M166.873,63.693c0,4.006-6.575,2.319-15.174-2.53c-8.427-4.753-12.613-0.628-14.314,2.106
							c0.43-2.868,1.974-5.48,1.974-5.48c-4.367,2.055-4.075,5.608-3.495,7.578c-1.557-0.314-3.879-0.392-5.691,1.225
							c0,0,4.451-0.699,6.092,0.708c0.213,0.183,0.9,0.503,0.98,0.577c4.609,5.073,9.164,7.538,18.656,6.851
							c5.244-0.38,6.99-0.989,9.482-3.654C168.339,67.91,166.873,63.693,166.873,63.693z"/>
						<path opacity="0.5" fill="#995235" d="M155.9,74.728c4.939-0.358,6.776-0.92,9.055-3.213
							c-3.393,0.288-7.219-1.148-9.845-3.504c-0.087,1.309,0.567,3.053,2.312,5.06c-4.188-0.698-7.908-2.007-11.398-4.798
							c0.697,1.396,1.41,3.708,2.107,4.406c-2.166,0-7.93-2.524-9.227-3.104C143.014,73.485,147.543,75.333,155.9,74.728z"/>
						<ellipse fill="#FDFAEE" cx="154.608" cy="90.18" rx="3.688" ry="3.492"/>
						<path fill="#E78660" d="M155.959,92.697c-0.682,0.132-1.269,0.214-1.945,0.213c-1.099-0.002-2.104-0.488-2.757-1.279
							c0.583,1.203,1.862,2.04,3.353,2.04c1.528,0,2.841-0.882,3.398-2.138C157.424,92.053,156.729,92.547,155.959,92.697z"/>
						<g>
							<ellipse fill="#633837" cx="153.091" cy="90.101" rx="2.162" ry="2.133"/>
							<ellipse fill="#321413" cx="153.091" cy="90.101" rx="1.313" ry="1.296"/>
						</g>
						<path fill="#E78660" d="M154.673,88.176c1.355,0.112,2.36,0.787,3.615,1.845c-0.088-1.854-0.796-3.895-3.655-4.083
							c-2.758-0.183-3.506,2.125-3.693,3.887C151.372,88.963,152.16,87.967,154.673,88.176z"/>
						<ellipse fill="#FDFAEE" cx="140.239" cy="90.18" rx="3.688" ry="3.492"/>
						<path fill="#E78660" d="M138.889,92.697c0.682,0.132,1.268,0.214,1.945,0.213c1.098-0.002,2.104-0.488,2.756-1.279
							c-0.582,1.203-1.861,2.04-3.351,2.04c-1.53,0-2.842-0.882-3.4-2.138C137.424,92.053,138.119,92.547,138.889,92.697z"/>
						<g>
							<ellipse fill="#633837" cx="138.721" cy="90.259" rx="2.162" ry="2.133"/>
							<ellipse fill="#321413" cx="138.722" cy="90.259" rx="1.313" ry="1.296"/>
						</g>
						<path fill="#E78660" d="M140.035,88.348c-1.354,0.128-2.395,0.457-3.476,1.674c0.088-1.854,0.821-3.144,3.68-3.333
							c2.758-0.182,3.481,1.375,3.669,3.137C143.56,89.505,142.389,88.125,140.035,88.348z"/>
						<g>
							<path fill="#CE7959" d="M146.99,100.711c-0.533,0-1.074-0.106-1.518-0.282c-0.811-0.321-1.316-0.847-1.425-1.482
								c-0.153-0.898,2.668-13.262,2.657-13.316c-0.036-0.193,0.092-0.38,0.285-0.417c0.195-0.037,0.381,0.092,0.417,0.285
								c0.043,0.228-2.757,12.734-2.655,13.328c0.063,0.375,0.422,0.716,0.983,0.938c0.864,0.342,1.947,0.302,2.466-0.092
								c0.157-0.119,0.381-0.088,0.5,0.069c0.119,0.157,0.088,0.381-0.068,0.5C148.197,100.573,147.598,100.711,146.99,100.711z"/>
						</g>
						<path fill="#884627" d="M150.859,80.6c0,0,5.012-0.998,6.218-0.488c1.206,0.511,3.785,2.569,3.62,3.348
							c-0.164,0.778-4.186-1.049-4.678-0.958c-0.492,0.091-5.248,1.034-5.627,0.363C149.957,82.092,150.018,80.607,150.859,80.6z"/>
						<path fill="#884627" d="M144.05,82.551c0,0-5.003-0.465-6.221,0.005c-1.218,0.47-3.838,2.44-3.689,3.225
							c0.147,0.784,4.206-0.908,4.696-0.8c0.49,0.108,5.238,0.507,5.632-0.149C144.92,84.073,144.891,82.585,144.05,82.551z"/>
						<circle fill="#FDFAEE" cx="138.167" cy="89.852" r="0.424"/>
						<circle fill="#FDFAEE" cx="152.381" cy="89.852" r="0.424"/>
						<g>
							<path fill="#CE7959" d="M149.266,104.715c1.02-0.1,1.781,0.494,1.792,0.504c0.065,0.051,0.086,0.156,0.049,0.235
								c-0.038,0.079-0.121,0.101-0.185,0.05c-0.063-0.05-1.567-1.212-3.146,0.314c-0.059,0.057-0.145,0.041-0.191-0.035
								c-0.046-0.076-0.037-0.183,0.021-0.238C148.181,104.988,148.756,104.764,149.266,104.715z"/>
						</g>
						
							<radialGradient id="SVGID_11_" cx="180.335" cy="97.0137" r="3.2751" gradientTransform="matrix(1.1695 0 0 1 -53.8691 0)" gradientUnits="userSpaceOnUse">
							<stop  offset="0" style="stop-color:#F29788"/>
							<stop  offset="0.6119" style="stop-color:#F2A388"/>
							<stop  offset="0.9198" style="stop-color:#F2AB88"/>
						</radialGradient>
						<ellipse fill="url(#SVGID_11_)" cx="157.033" cy="97.014" rx="4.104" ry="3.023"/>
						
							<radialGradient id="SVGID_12_" cx="354.0361" cy="97.0137" r="3.2751" gradientTransform="matrix(-1.1695 0 0 1 552.1289 0)" gradientUnits="userSpaceOnUse">
							<stop  offset="0" style="stop-color:#F29788"/>
							<stop  offset="0.6119" style="stop-color:#F2A388"/>
							<stop  offset="0.9198" style="stop-color:#F2AB88"/>
						</radialGradient>
						<ellipse fill="url(#SVGID_12_)" cx="138.084" cy="97.014" rx="4.104" ry="3.023"/>
						<path opacity="0.35" fill="#995235" d="M131.872,86.61c-1.163-0.044-2.286-0.258-3.345-0.622
							c0.494,4.212,1.434,8.396,2.209,9.966l0.014-0.008c0.843-0.522,1.338-1.493,1.274-2.512
							C131.869,90.948,131.835,88.659,131.872,86.61z"/>
						<path opacity="0.35" fill="#995235" d="M163.129,86.786c0.067,2.289,0.061,4.64-0.031,6.622
							c-0.039,0.837,0.285,1.647,0.891,2.198l0.383,0.348c0.808-1.635,1.607-6.221,2.026-10.642
							C165.406,85.985,164.309,86.496,163.129,86.786z"/>
						<g>
							<path fill="#CE7959" d="M145.586,104.891c-0.198,0-0.396-0.081-0.541-0.24c-0.268-0.299-0.243-0.759,0.055-1.027
								c0.119-0.106,2.945-2.586,7.191-1.052c0.378,0.137,0.573,0.554,0.438,0.931c-0.138,0.379-0.555,0.574-0.932,0.438
								c-3.436-1.243-5.703,0.744-5.725,0.766C145.934,104.828,145.76,104.891,145.586,104.891z"/>
						</g>
					</g>
				</g>
				<g>
					<circle fill="#394962" cx="151.822" cy="172.108" r="1.354"/>
					<circle fill="#394962" cx="151.822" cy="181.058" r="1.354"/>
					<circle fill="#394962" cx="151.822" cy="190.008" r="1.354"/>
					<circle fill="#394962" cx="151.822" cy="198.957" r="1.354"/>
				</g>
				<path opacity="0.5" fill="#52ACB5" d="M135.969,129.971c-3.643-3.678-7.545,5.744-10.484,2.043
					c-0.551,1.356-1.154,2.702-1.516,4.218c-0.657,2.752-1.357,5.48-2.114,8.206c-1.312,4.719-2.788,9.448-5.778,13.355
					c0.418,1.896,0.821,3.797,1.192,5.702c0.052,0.266,0.1,0.536,0.15,0.802c0.24,1.258,0.468,2.517,0.683,3.778
					c0.074,0.429,0.145,0.861,0.215,1.294c0.188,1.137,0.36,2.277,0.523,3.418c0.076,0.523,0.154,1.045,0.224,1.571
					c0.067,0.505,0.133,1.011,0.192,1.517c0.039,0.306,0.07,0.613,0.105,0.92c0.453,4.041,0.711,8.091,0.782,12.152
					c0.001,0.085,0.003,0.167,0.003,0.252c0.012,0.729,0.017,1.457,0.017,2.186c-0.003,1.085-0.013,2.17-0.037,3.252
					c-0.387,16.998-3.274,33.181-3.611,34.855c0,0,1.568,0.37,3.995,0.67c1.34-7.43,5.614-24.734,6.559-41.684
					c-0.104-4.834-0.349-9.593-0.705-14.111c5.333-15.959,8.733-36.018,9.287-41.826
					C135.901,129.904,137.833,131.854,135.969,129.971z"/>
				<path fill="#A63F36" d="M181.175,247.885c-0.109-0.051-0.219-0.102-0.352-0.162c-0.867-0.399-1.916-1.066-2.703-1.201
					c-0.18-0.031-0.349-0.049-0.52-0.069c-1.011,0.58-2.103,1.301-2.852,2.063c0.168,0.982,0.432,1.946,0.852,2.88
					c1.097,2.44,2.637,2.181,4.389,1.984c0.388-0.043,0.663-0.077,0.862-0.101c0.29-0.592,0.503-1.175,0.521-1.907
					c0.027-1.09-0.002-2.168-0.069-3.243C181.261,248.047,181.213,247.97,181.175,247.885z"/>
				<path fill="#00475E" d="M178.065,237.1c0,0,4.343-4.374,8.559-3.951c4.218,0.424,7.011,5.303,7.011,5.303
					S183.489,239.729,178.065,237.1z"/>
				<g>
					<path fill="#332D2C" d="M173.752,257.913l-16.803,1.254l0.898,39.65l3.734,4.3c1.514,0.017,5.597-0.222,12.17-0.484V257.913z"
						/>
					<path fill="#504B4A" d="M215.174,299.396c0,0-0.221-29.527,0-40.616c0,0-54.322,3.226-54.348,3.347
						c0.539,14.031,0.756,40.991,0.756,40.991C164.658,303.149,215.174,299.396,215.174,299.396z"/>
					<polygon fill="#615D5C" points="207.92,256.112 156.949,259.167 160.829,262.222 215.174,258.779 					"/>
					<path fill="#252E31" d="M175.343,258.486c0.177-2.415,0.675-7.186,1.895-8.183c1.648-1.348,14.003-1.736,15.485-0.966
						c1.217,0.633,2.229,6.303,2.439,8.324l1.195,0.944l2.299-1.083c-0.314-1.597-1.768-8.276-3.242-9.24
						c-3.332-2.177-19.129-1.081-20.49,0.815c-1.992,2.774-2.443,8.148-2.521,9.573l1.369,0.868L175.343,258.486z"/>
					<path fill="#4A5254" d="M176.231,259.438c0.167-2.282,0.564-7.026,1.718-7.969c1.559-1.274,14.992-1.492,16.395-0.764
						c1.15,0.599,1.813,5.99,2.014,7.901l2.66-0.11c-0.299-1.509-1.713-8.345-3.014-9.385c-2.455-1.962-19.398-0.6-20.2,0.835
						c-1.577,2.818-1.961,8.247-2.032,9.594L176.231,259.438z"/>
					<path fill="#72787A" d="M183.604,250.376c0.343-0.657,0.745-1.361,1.139-2.086c-0.712,0.048-1.415,0.104-2.097,0.169
						c-0.45,0.729-0.89,1.469-1.329,2.21c0.688-0.079,1.446-0.144,2.234-0.198C183.568,250.438,183.586,250.407,183.604,250.376z"/>
					<g>
						<path fill="#72787A" d="M193.361,248.348c-0.529-0.066-1.107-0.118-1.73-0.152c-0.275,0.716-0.594,1.422-0.939,2.119
							c0.793,0.022,1.498,0.06,2.086,0.111L193.361,248.348z"/>
						<path fill="#72787A" d="M196.004,249.111c-0.229-0.183-0.586-0.334-1.037-0.461c-0.152,0.697-0.324,1.487-0.469,2.168
							c0.371,0.342,0.688,1.181,0.949,2.204c0.254-1.277,0.451-2.57,0.57-3.895C196.014,249.123,196.01,249.115,196.004,249.111z"/>
					</g>
					<path opacity="0.32" fill="#615D5C" d="M160.904,262.616c0.011,0.359,0.021,0.716,0.033,1.086
						c0.625,4.526,3.777,22.596,17.138,22.256c1.497-0.038,2.975-0.093,4.414-0.159l0.426,2.749l11.376-0.765l-0.131-2.806
						c3.723-0.351,6.188-0.673,6.504-0.748c2.098-0.499,13.537-1.796,14.457-22.467c0.008-0.877,0.016-1.707,0.025-2.492
						L160.904,262.616z"/>
					<path fill="#615D5C" d="M160.826,262.229c0,0,2.006,22.94,17.374,22.55c11.538-0.293,21.919-1.568,22.591-1.729
						c2.18-0.519,14.297-1.142,14.383-24.271L160.826,262.229z"/>
					<path fill="#9A9897" d="M215.174,258.779l-54.348,3.45c0,0,9.02,0.283,27.428-1.092
						C199.004,260.335,215.174,258.934,215.174,258.779z"/>
					<g>
						<polygon fill="#686463" points="183.18,282.01 183.572,287.783 193.984,287.226 194.498,286.785 193.742,281.606 
							183.572,281.633 						"/>
						<polygon fill="#878483" points="183.572,281.633 183.965,287.407 194.498,286.785 194.273,281.053 						"/>
					</g>
				</g>
				<g>
					<path fill="#F2AB88" d="M193.842,245.641c-1.314-2.756-4.391-7.655-4.457-9.122c-0.047-1.065,0.15-2.72,0.359-4.113
						c-1.695,0.095-3.408,0.083-5.076,0.054c-0.841-0.015-1.816-0.06-2.69-0.307c-0.064,1.496-0.487,5.313-3.034,8.771
						c-0.981,1.332-3.66,4.001-4.463,5.194c-1.457,2.171-0.546,4.809-0.512,4.748c0.127-0.226,1.858-3.8,5.179-2.634
						c1.038,0.365,0.531,2.416-0.172,4.308c-0.066,0.177-0.872-0.162-1.524-0.411c-0.051,0.225-0.172,0.586-0.266,0.876
						c-0.054,0.168-0.099,0.334-0.139,0.505c-0.104,0.458-0.324,1.427-0.324,1.427s1.734,1.899,4.479,0.633
						c0.05-0.023,0.087-0.079,0.132-0.116c0.505,0.328,1.748,0.915,3.196-0.021c0.083-0.055,0.161-0.134,0.24-0.211
						c0.321,0.247,1.717,1.171,3.372,0.1c0.086-0.055,0.166-0.137,0.248-0.216c-0.018,0.029-0.035,0.059-0.035,0.059
						s0.729,1.761,3.486-0.145c1.146-0.793,1.416-1.931,1.982-4.124C194.246,249.255,194.57,247.167,193.842,245.641z"/>
					<path opacity="0.55" fill="#DCB890" d="M183.813,239.072c3.203-0.073,5.785,1.004,8.008,2.764
						c-1.211-2.206-2.395-4.413-2.436-5.317c-0.047-1.065,0.15-2.72,0.359-4.113c-1.695,0.095-3.408,0.083-5.076,0.054
						c-0.841-0.015-1.816-0.06-2.69-0.307c-0.063,1.435-0.459,5.004-2.738,8.344C180.713,239.774,182.244,239.109,183.813,239.072z"
						/>
					<path opacity="0.65" fill="#D69C7C" d="M181.891,255.737c-0.147-0.127-0.41-0.125-0.537-0.258
						c-0.045-0.563,1.104-4.593,1.336-5.986C182.88,249.638,182.337,253.903,181.891,255.737z"/>
					<path opacity="0.65" fill="#D69C7C" d="M185.306,255.543c-0.147-0.127-0.379-0.196-0.506-0.329
						c-0.044-0.563,1.247-4.265,1.479-5.658C186.639,249.693,185.752,253.709,185.306,255.543z"/>
					<path opacity="0.65" fill="#D69C7C" d="M188.84,255.69c-0.148-0.126-0.383-0.361-0.51-0.494
						c-0.045-0.563,1.688-4.259,1.92-5.652C190.439,249.688,189.674,253.472,188.84,255.69z"/>
				</g>
				<path fill="#17899C" d="M184.334,126.799c0,0,2.073,0.91,4.84,10.296c1.674,5.679,5.902,47.836,6.18,49.793
					c0.279,1.956-0.26,46.385-1.719,51.563c0,0-11.036-3.606-15.569-1.352c0,0,1.71-41.53,2.049-48.446
					c-0.094,1.92,1.319-10.782-9.15-32.462C170.964,156.191,174.527,129.481,184.334,126.799z"/>
				<path opacity="0.5" fill="#52ACB5" d="M106.27,187.113c-0.082-0.092-0.16-0.19-0.239-0.291
					c-0.073-0.095-0.146-0.189-0.216-0.292c-0.016-0.023-0.031-0.05-0.047-0.074c-1.98-2.99-2.714-9.023-2.746-16.045
					c1.583-1.498,2.724-3.335,3.902-5.242c2.154-3.492,4.434-6.856,6.473-10.43c2.001-3.505,3.93-7.052,5.902-10.572
					c0.11-0.197,0.195-0.401,0.295-0.602c0.084,0.547,0.165,1.091,0.242,1.629c0.01,0.063,0.019,0.127,0.027,0.19
					c0.072,0.51,0.143,1.014,0.208,1.511c0.005,0.035,0.01,0.07,0.015,0.105c0.068,0.526,0.133,1.043,0.192,1.551
					c0.008,0.067,0.015,0.134,0.022,0.201c0.048,0.417,0.092,0.826,0.133,1.228c0.012,0.118,0.023,0.235,0.034,0.352
					c0.04,0.41,0.075,0.81,0.105,1.2c0.004,0.052,0.009,0.106,0.013,0.158c0.033,0.432,0.058,0.845,0.078,1.247
					c0.006,0.104,0.009,0.204,0.013,0.307c0.013,0.301,0.021,0.592,0.026,0.873c0.002,0.108,0.004,0.217,0.004,0.32
					c0.002,0.357,0,0.7-0.014,1.021c0,0.003,0,0.005,0,0.008c-0.078,1.925-0.213,3.813-0.396,5.652
					c-0.061,0.612-0.127,1.219-0.199,1.82c-0.503,4.206-1.262,8.112-2.198,11.541c-0.267,0.979-0.55,1.92-0.845,2.816
					c-0.883,2.693-1.879,4.999-2.938,6.804c-0.53,0.903-1.075,1.682-1.631,2.321c-0.37,0.427-0.743,0.793-1.12,1.092
					s-0.756,0.532-1.135,0.696c-0.379,0.163-0.759,0.257-1.137,0.277c-0.756,0.04-1.508-0.216-2.238-0.8
					c-0.15-0.12-0.295-0.259-0.437-0.406C106.368,187.227,106.319,187.17,106.27,187.113z"/>
				<path fill="#F2AB88" d="M156.508,108.596c-0.089-0.52-0.917-1.986-2.084-1.24c-0.857,0.549-2.146,1.519-3.504,2.678
					c-2.715,2.319-6.459,4.24-7.396,4.734c-1.035,0.544-3.774,2.123-5.809,3.07c-0.353,0.017-0.668-0.209-0.817-0.751
					c-0.456-1.653,0.677-1.761,1.095-4.803c0.367-2.688-0.958-5.462-2.508-5.219c-2.545,0.398-1.74,4.579-2.047,6.044
					c-0.658,3.143-2.608,7.787-2.66,8.683c-0.049,0.839,0.221,2.783,0.049,4.548c-2.026,3.539-5.326,9.399-8.904,16.135
					c0.689,0.775,1.383,1.574,2.111,2.388c1.854,2.068,3.73,4.111,5.531,6.219c3.316-9.996,6.197-17.298,7.231-18.333
					c0.52-0.52,2.483-1.038,4.785-1.574c0.603-0.045,1.308-0.191,2.3-0.527c3.354-0.768,6.188-1.914,6.941-2.484
					c0.465-0.354,0.722-1.139,0.646-1.483c-0.142-0.648-0.47-1.639-1.182-2.036c0,0,3.125-1.873,1.833-3.056
					c-0.598-0.546-1.403-1.155-1.403-1.155s1.461-0.945,1.296-2.08c-0.104-0.724-1.32-1.495-2.409-1.852
					c-0.041,0.021-0.082,0.035-0.122,0.056c1.639-1.318,3.6-2.948,4.908-4.212C156.057,110.734,156.67,109.562,156.508,108.596z"/>
				<path opacity="0.55" fill="#DCB890" d="M134.236,134.479c-2.412-0.83-4.344-2.346-5.567-4.336
					c-1.89,3.357-4.249,7.629-6.747,12.332c0.689,0.775,1.383,1.574,2.111,2.388c1.854,2.068,3.73,4.111,5.531,6.219
					c2.452-7.391,4.661-13.29,6.065-16.289C135.16,134.734,134.693,134.636,134.236,134.479z"/>
				<path fill="#FFD7C0" d="M134.902,111.543c-1.533-0.271-0.938-3.076-0.841-3.16c0,0,1.087-0.725,2.191,0.557
					c0.159,0.717,0.028,1.152-0.11,1.601C135.895,111.341,135.348,111.621,134.902,111.543z"/>
				<path fill="#FFD7C0" d="M153.404,110.35c-0.648-1.461,1.299-2.684,1.427-2.695c0,0,1.141-0.242,1.271,1.445
					c-0.297,0.67-0.759,1.029-1.137,1.309C154.291,110.906,153.588,110.762,153.404,110.35z"/>
				<path opacity="0.65" fill="#D69C7C" d="M148.876,116.838c-1.239,0.838-3.831,2.793-4.769,3.482
					c0.219,0.106,4.467-2.41,5.926-3.659c-0.146-0.061-0.291-0.111-0.434-0.159C149.361,116.626,149.121,116.738,148.876,116.838z"
					/>
				<path opacity="0.65" fill="#D69C7C" d="M151.197,120.801c-0.184-0.076-0.303-0.314-0.481-0.369
					c-0.532,0.219-4.286,3.176-5.444,4.029C145.488,124.566,149.736,122.05,151.197,120.801z"/>
				<path opacity="0.65" fill="#D69C7C" d="M150.699,124.979c0,0-0.211-0.275-0.381-0.328c-0.508,0.209-2.963,2.275-4.069,3.089
					C146.457,127.842,149.306,126.17,150.699,124.979z"/>
				<path fill="#17899C" d="M125.484,132.014c-9.271,16.888-23.562,48.714-19.75,54.357c3.204,4.743,7.934,2.254,12.254-3.746
					c3.109-4.314,18.078-37.984,20.096-43.375C136.475,138.031,126.352,132.604,125.484,132.014z"/>
			</g>
		</g>
		<g>
			<rect x="50.927" y="56.183" fill="none" width="30.061" height="1.542"/>
			<rect x="50.927" y="56.775" fill="#616E7D" width="30.061" height="6.697"/>
			<path fill="#616E7D" d="M47.94,53.409v-6.698H35.888c-1.315,0-2.606,0.535-3.537,1.466c-0.931,0.932-1.467,2.221-1.467,3.539
				v83.903c0,1.317,0.536,2.607,1.467,3.54c0.931,0.933,2.222,1.467,3.537,1.467h59.591c1.32,0,2.609-0.534,3.541-1.467
				s1.464-2.223,1.464-3.54V51.717c0-1.318-0.533-2.607-1.464-3.539c-0.931-0.932-2.22-1.466-3.541-1.466H84.143v6.698h11.336
				v77.204v2.406H35.888v-79.61H47.94z"/>
			<rect x="50.927" y="62.327" fill="#FFFFFF" width="30.061" height="3.231"/>
			<path fill="#FFFFFF" d="M35.888,53.515v79.609h59.591v-2.407V53.515H84.143v4.763c0,0.405-0.167,0.801-0.453,1.085
				c-0.286,0.286-0.678,0.449-1.084,0.449H49.475c-0.401,0-0.799-0.163-1.083-0.449c-0.287-0.284-0.451-0.68-0.451-1.085v-4.763
				H35.888z M90.475,118.347H40.894v-5.326h49.581V118.347z M90.475,106.293H40.894v-5.324h49.581V106.293z M90.475,94.241H40.894
				v-5.323h49.581V94.241z M90.475,82.191H40.894v-5.324h49.581V82.191z M90.475,64.813v5.327H40.894v-5.327H90.475z"/>
			<path fill="#AAD4C8" d="M49.392,51.967c-0.401,0-0.798,0.165-1.083,0.449c-0.286,0.287-0.451,0.68-0.451,1.085v3.078v6.7v4.764
				c0,0.403,0.165,0.799,0.451,1.085c0.285,0.285,0.682,0.449,1.083,0.449h33.131c0.404,0,0.799-0.164,1.085-0.449
				c0.285-0.286,0.451-0.682,0.451-1.085v-4.764v-6.7v-3.078c0-0.403-0.166-0.799-0.451-1.085c-0.286-0.285-0.681-0.449-1.085-0.449
				H49.392z M80.988,56.58v6.7v3.229H50.927v-3.229v-6.7v-1.544h30.061V56.58z"/>
			<rect x="40.895" y="70.776" fill="#82BFAB" width="49.58" height="5.327"/>
			<rect x="40.895" y="80.047" fill="#82BFAB" width="49.58" height="5.326"/>
			<rect x="40.895" y="89.319" fill="#82BFAB" width="49.58" height="5.326"/>
			<rect x="40.895" y="98.588" fill="#82BFAB" width="49.58" height="5.324"/>
			<rect x="40.895" y="107.859" fill="#82BFAB" width="49.58" height="5.324"/>
		</g>
	</g>
</g>
<g id="Layer_4">
</g>
</svg>
